%TF.GenerationSoftware,KiCad,Pcbnew,9.0.2*%
%TF.CreationDate,2026-03-28T23:26:53-07:00*%
%TF.ProjectId,bldc,626c6463-2e6b-4696-9361-645f70636258,rev?*%
%TF.SameCoordinates,Original*%
%TF.FileFunction,Paste,Top*%
%TF.FilePolarity,Positive*%
%FSLAX46Y46*%
G04 Gerber Fmt 4.6, Leading zero omitted, Abs format (unit mm)*
G04 Created by KiCad (PCBNEW 9.0.2) date 2026-03-28 23:26:53*
%MOMM*%
%LPD*%
G01*
G04 APERTURE LIST*
G04 Aperture macros list*
%AMRoundRect*
0 Rectangle with rounded corners*
0 $1 Rounding radius*
0 $2 $3 $4 $5 $6 $7 $8 $9 X,Y pos of 4 corners*
0 Add a 4 corners polygon primitive as box body*
4,1,4,$2,$3,$4,$5,$6,$7,$8,$9,$2,$3,0*
0 Add four circle primitives for the rounded corners*
1,1,$1+$1,$2,$3*
1,1,$1+$1,$4,$5*
1,1,$1+$1,$6,$7*
1,1,$1+$1,$8,$9*
0 Add four rect primitives between the rounded corners*
20,1,$1+$1,$2,$3,$4,$5,0*
20,1,$1+$1,$4,$5,$6,$7,0*
20,1,$1+$1,$6,$7,$8,$9,0*
20,1,$1+$1,$8,$9,$2,$3,0*%
%AMRotRect*
0 Rectangle, with rotation*
0 The origin of the aperture is its center*
0 $1 length*
0 $2 width*
0 $3 Rotation angle, in degrees counterclockwise*
0 Add horizontal line*
21,1,$1,$2,0,0,$3*%
G04 Aperture macros list end*
%ADD10RoundRect,0.140000X-0.170000X0.140000X-0.170000X-0.140000X0.170000X-0.140000X0.170000X0.140000X0*%
%ADD11RoundRect,0.140000X-0.140000X-0.170000X0.140000X-0.170000X0.140000X0.170000X-0.140000X0.170000X0*%
%ADD12R,0.738000X0.570000*%
%ADD13RoundRect,0.125000X0.125000X-0.190000X0.125000X0.190000X-0.125000X0.190000X-0.125000X-0.190000X0*%
%ADD14RoundRect,0.135000X-0.135000X-0.185000X0.135000X-0.185000X0.135000X0.185000X-0.135000X0.185000X0*%
%ADD15RoundRect,0.135000X-0.185000X0.135000X-0.185000X-0.135000X0.185000X-0.135000X0.185000X0.135000X0*%
%ADD16RotRect,1.000000X0.600000X250.000000*%
%ADD17RoundRect,0.250000X0.250000X0.475000X-0.250000X0.475000X-0.250000X-0.475000X0.250000X-0.475000X0*%
%ADD18RoundRect,0.150000X-0.150000X-0.200000X0.150000X-0.200000X0.150000X0.200000X-0.150000X0.200000X0*%
%ADD19RoundRect,0.140000X0.108353X0.191728X-0.167393X0.143107X-0.108353X-0.191728X0.167393X-0.143107X0*%
%ADD20RoundRect,0.135000X0.135000X0.185000X-0.135000X0.185000X-0.135000X-0.185000X0.135000X-0.185000X0*%
%ADD21RoundRect,0.250000X-0.312500X-0.625000X0.312500X-0.625000X0.312500X0.625000X-0.312500X0.625000X0*%
%ADD22RoundRect,0.140000X-0.207631X0.073414X-0.111865X-0.189700X0.207631X-0.073414X0.111865X0.189700X0*%
%ADD23RoundRect,0.140000X-0.143107X0.167393X-0.191728X-0.108353X0.143107X-0.167393X0.191728X0.108353X0*%
%ADD24RoundRect,0.140000X-0.220218X-0.002028X-0.040237X-0.216520X0.220218X0.002028X0.040237X0.216520X0*%
%ADD25RoundRect,0.140000X0.140000X0.170000X-0.140000X0.170000X-0.140000X-0.170000X0.140000X-0.170000X0*%
%ADD26RoundRect,0.250000X0.000000X-0.424264X0.424264X0.000000X0.000000X0.424264X-0.424264X0.000000X0*%
%ADD27RoundRect,0.062500X-0.203293X-0.291682X0.291682X0.203293X0.203293X0.291682X-0.291682X-0.203293X0*%
%ADD28RoundRect,0.062500X0.203293X-0.291682X0.291682X-0.203293X-0.203293X0.291682X-0.291682X0.203293X0*%
%ADD29RoundRect,0.140000X0.191728X-0.108353X0.143107X0.167393X-0.191728X0.108353X-0.143107X-0.167393X0*%
%ADD30RoundRect,0.140000X0.170000X-0.140000X0.170000X0.140000X-0.170000X0.140000X-0.170000X-0.140000X0*%
%ADD31RoundRect,0.250000X-0.250000X-0.475000X0.250000X-0.475000X0.250000X0.475000X-0.250000X0.475000X0*%
%ADD32RotRect,1.000000X0.600000X170.000000*%
%ADD33RoundRect,0.250000X-0.475000X0.250000X-0.475000X-0.250000X0.475000X-0.250000X0.475000X0.250000X0*%
%ADD34R,0.600000X1.450000*%
%ADD35R,0.300000X1.450000*%
%ADD36RotRect,1.000000X0.600000X160.000000*%
%ADD37RoundRect,0.150000X-0.150000X-0.250000X0.150000X-0.250000X0.150000X0.250000X-0.150000X0.250000X0*%
%ADD38RoundRect,0.075000X-0.100000X-0.075000X0.100000X-0.075000X0.100000X0.075000X-0.100000X0.075000X0*%
%ADD39RoundRect,0.058750X-0.376250X-0.058750X0.376250X-0.058750X0.376250X0.058750X-0.376250X0.058750X0*%
%ADD40RoundRect,0.250000X-0.512652X-0.159099X-0.159099X-0.512652X0.512652X0.159099X0.159099X0.512652X0*%
%ADD41R,1.000000X0.600000*%
%ADD42RotRect,1.000000X0.600000X40.000000*%
%ADD43RoundRect,0.140000X0.220218X0.002028X0.040237X0.216520X-0.220218X-0.002028X-0.040237X-0.216520X0*%
%ADD44RoundRect,0.100000X-0.637500X-0.100000X0.637500X-0.100000X0.637500X0.100000X-0.637500X0.100000X0*%
%ADD45RotRect,1.000000X0.600000X230.000000*%
%ADD46RoundRect,0.218750X-0.256250X0.218750X-0.256250X-0.218750X0.256250X-0.218750X0.256250X0.218750X0*%
%ADD47R,1.450000X0.600000*%
%ADD48R,1.450000X0.300000*%
%ADD49RoundRect,0.140000X0.219203X0.021213X0.021213X0.219203X-0.219203X-0.021213X-0.021213X-0.219203X0*%
%ADD50RotRect,1.000000X0.600000X210.000000*%
%ADD51R,0.600000X1.000000*%
%ADD52RoundRect,0.140000X0.216520X0.040237X0.002028X0.220218X-0.216520X-0.040237X-0.002028X-0.220218X0*%
%ADD53RoundRect,0.150000X0.250000X-0.150000X0.250000X0.150000X-0.250000X0.150000X-0.250000X-0.150000X0*%
%ADD54RoundRect,0.075000X0.075000X-0.100000X0.075000X0.100000X-0.075000X0.100000X-0.075000X-0.100000X0*%
%ADD55RoundRect,0.058750X0.058750X-0.376250X0.058750X0.376250X-0.058750X0.376250X-0.058750X-0.376250X0*%
%ADD56RoundRect,0.140000X0.002028X-0.220218X0.216520X-0.040237X-0.002028X0.220218X-0.216520X0.040237X0*%
%ADD57RotRect,1.000000X0.600000X150.000000*%
%ADD58RoundRect,0.140000X-0.036244X-0.217224X0.206244X-0.077224X0.036244X0.217224X-0.206244X0.077224X0*%
%ADD59RotRect,1.000000X0.600000X30.000000*%
%ADD60RoundRect,0.140000X0.167393X0.143107X-0.108353X0.191728X-0.167393X-0.143107X0.108353X-0.191728X0*%
%ADD61RoundRect,0.102000X-0.373000X-0.323000X0.373000X-0.323000X0.373000X0.323000X-0.373000X0.323000X0*%
%ADD62RoundRect,0.140000X-0.189700X-0.111865X0.073414X-0.207631X0.189700X0.111865X-0.073414X0.207631X0*%
%ADD63RoundRect,0.140000X0.217224X-0.036244X0.077224X0.206244X-0.217224X0.036244X-0.077224X-0.206244X0*%
%ADD64RoundRect,0.150000X0.512500X0.150000X-0.512500X0.150000X-0.512500X-0.150000X0.512500X-0.150000X0*%
%ADD65RoundRect,0.140000X-0.216520X-0.040237X-0.002028X-0.220218X0.216520X0.040237X0.002028X0.220218X0*%
%ADD66RoundRect,0.140000X-0.077224X0.206244X-0.217224X-0.036244X0.077224X-0.206244X0.217224X0.036244X0*%
%ADD67RoundRect,0.140000X-0.108353X-0.191728X0.167393X-0.143107X0.108353X0.191728X-0.167393X0.143107X0*%
%ADD68RotRect,1.000000X0.600000X60.000000*%
%ADD69RoundRect,0.140000X-0.040237X0.216520X-0.220218X0.002028X0.040237X-0.216520X0.220218X-0.002028X0*%
%ADD70RotRect,1.000000X0.600000X280.000000*%
%ADD71RoundRect,0.140000X0.077224X-0.206244X0.217224X0.036244X-0.077224X0.206244X-0.217224X-0.036244X0*%
%ADD72RoundRect,0.100000X-0.100000X0.637500X-0.100000X-0.637500X0.100000X-0.637500X0.100000X0.637500X0*%
%ADD73RotRect,1.000000X0.600000X300.000000*%
%ADD74RoundRect,0.140000X0.143107X-0.167393X0.191728X0.108353X-0.143107X0.167393X-0.191728X-0.108353X0*%
%ADD75R,1.400000X1.600000*%
%ADD76RoundRect,0.140000X-0.073414X-0.207631X0.189700X-0.111865X0.073414X0.207631X-0.189700X0.111865X0*%
%ADD77RotRect,1.000000X0.600000X190.000000*%
%ADD78RoundRect,0.250000X0.000000X0.431335X-0.431335X0.000000X0.000000X-0.431335X0.431335X0.000000X0*%
%ADD79RoundRect,0.062500X0.194454X0.282843X-0.282843X-0.194454X-0.194454X-0.282843X0.282843X0.194454X0*%
%ADD80RoundRect,0.062500X-0.194454X0.282843X-0.282843X0.194454X0.194454X-0.282843X0.282843X-0.194454X0*%
%ADD81RoundRect,0.250000X-1.000000X-0.650000X1.000000X-0.650000X1.000000X0.650000X-1.000000X0.650000X0*%
%ADD82RotRect,1.000000X0.600000X320.000000*%
%ADD83RoundRect,0.150000X-0.587500X-0.150000X0.587500X-0.150000X0.587500X0.150000X-0.587500X0.150000X0*%
%ADD84RotRect,1.000000X0.600000X290.000000*%
%ADD85RotRect,1.000000X0.600000X120.000000*%
%ADD86R,0.740000X2.400000*%
%ADD87RoundRect,0.140000X0.206244X0.077224X-0.036244X0.217224X-0.206244X-0.077224X0.036244X-0.217224X0*%
%ADD88RotRect,1.000000X0.600000X200.000000*%
%ADD89R,1.600000X1.400000*%
%ADD90RotRect,1.000000X0.600000X110.000000*%
%ADD91RoundRect,0.140000X0.189700X0.111865X-0.073414X0.207631X-0.189700X-0.111865X0.073414X-0.207631X0*%
%ADD92RoundRect,0.250000X-0.625000X0.312500X-0.625000X-0.312500X0.625000X-0.312500X0.625000X0.312500X0*%
%ADD93RoundRect,0.375000X-0.625000X-0.375000X0.625000X-0.375000X0.625000X0.375000X-0.625000X0.375000X0*%
%ADD94RoundRect,0.500000X-0.500000X-1.400000X0.500000X-1.400000X0.500000X1.400000X-0.500000X1.400000X0*%
%ADD95RoundRect,0.140000X-0.167393X-0.143107X0.108353X-0.191728X0.167393X0.143107X-0.108353X0.191728X0*%
%ADD96RotRect,1.000000X0.600000X70.000000*%
%ADD97RoundRect,0.140000X-0.217224X0.036244X-0.077224X-0.206244X0.217224X-0.036244X0.077224X0.206244X0*%
%ADD98RotRect,1.000000X0.600000X310.000000*%
%ADD99RoundRect,0.140000X-0.191728X0.108353X-0.143107X-0.167393X0.191728X-0.108353X0.143107X0.167393X0*%
%ADD100RotRect,1.000000X0.600000X50.000000*%
%ADD101RotRect,1.000000X0.600000X20.000000*%
%ADD102RoundRect,0.250000X-0.925000X-1.500000X0.925000X-1.500000X0.925000X1.500000X-0.925000X1.500000X0*%
%ADD103RotRect,1.000000X0.600000X260.000000*%
%ADD104RotRect,1.000000X0.600000X80.000000*%
%ADD105RoundRect,0.150000X-0.512500X-0.150000X0.512500X-0.150000X0.512500X0.150000X-0.512500X0.150000X0*%
%ADD106RoundRect,0.218750X0.256250X-0.218750X0.256250X0.218750X-0.256250X0.218750X-0.256250X-0.218750X0*%
%ADD107RotRect,1.000000X0.600000X350.000000*%
%ADD108RotRect,1.000000X0.600000X240.000000*%
%ADD109RoundRect,0.250000X0.550000X-0.250000X0.550000X0.250000X-0.550000X0.250000X-0.550000X-0.250000X0*%
%ADD110RotRect,1.000000X0.600000X130.000000*%
%ADD111RoundRect,0.140000X-0.002028X0.220218X-0.216520X0.040237X0.002028X-0.220218X0.216520X-0.040237X0*%
%ADD112RoundRect,0.140000X0.036244X0.217224X-0.206244X0.077224X-0.036244X-0.217224X0.206244X-0.077224X0*%
%ADD113RoundRect,0.140000X-0.206244X-0.077224X0.036244X-0.217224X0.206244X0.077224X-0.036244X0.217224X0*%
%ADD114RotRect,1.000000X0.600000X330.000000*%
%ADD115R,0.254000X0.675000*%
%ADD116R,0.675000X0.254000*%
%ADD117RoundRect,0.140000X0.073414X0.207631X-0.189700X0.111865X-0.073414X-0.207631X0.189700X-0.111865X0*%
%ADD118RoundRect,0.140000X-0.111865X0.189700X-0.207631X-0.073414X0.111865X-0.189700X0.207631X0.073414X0*%
%ADD119RoundRect,0.050000X-0.285000X-0.100000X0.285000X-0.100000X0.285000X0.100000X-0.285000X0.100000X0*%
%ADD120RoundRect,0.250000X0.312500X0.625000X-0.312500X0.625000X-0.312500X-0.625000X0.312500X-0.625000X0*%
%ADD121RotRect,1.000000X0.600000X340.000000*%
%ADD122RoundRect,0.150000X0.150000X0.200000X-0.150000X0.200000X-0.150000X-0.200000X0.150000X-0.200000X0*%
%ADD123RoundRect,0.250000X0.475000X-0.250000X0.475000X0.250000X-0.475000X0.250000X-0.475000X-0.250000X0*%
%ADD124RoundRect,0.250000X-0.250000X-0.550000X0.250000X-0.550000X0.250000X0.550000X-0.250000X0.550000X0*%
%ADD125RotRect,1.000000X0.600000X10.000000*%
%ADD126RoundRect,0.140000X0.207631X-0.073414X0.111865X0.189700X-0.207631X0.073414X-0.111865X-0.189700X0*%
%ADD127RotRect,1.000000X0.600000X100.000000*%
%ADD128RoundRect,0.140000X0.111865X-0.189700X0.207631X0.073414X-0.111865X0.189700X-0.207631X-0.073414X0*%
%ADD129RoundRect,0.140000X0.040237X-0.216520X0.220218X-0.002028X-0.040237X0.216520X-0.220218X0.002028X0*%
%ADD130RoundRect,0.150000X-0.200000X0.150000X-0.200000X-0.150000X0.200000X-0.150000X0.200000X0.150000X0*%
%ADD131RotRect,1.000000X0.600000X140.000000*%
%ADD132RotRect,1.000000X0.600000X220.000000*%
%ADD133RoundRect,0.135000X0.185000X-0.135000X0.185000X0.135000X-0.185000X0.135000X-0.185000X-0.135000X0*%
G04 APERTURE END LIST*
D10*
%TO.C,C96*%
X64135000Y-99849999D03*
X64135000Y-100809999D03*
%TD*%
%TO.C,C67*%
X176240000Y-70640000D03*
X176240000Y-71600000D03*
%TD*%
D11*
%TO.C,C28*%
X58575000Y-27305000D03*
X59535000Y-27305000D03*
%TD*%
D12*
%TO.C,U2*%
X39395000Y-32475000D03*
X40615000Y-32475000D03*
X39395000Y-31525000D03*
X40615000Y-31525000D03*
D13*
X39032500Y-30945000D03*
X39675000Y-30945000D03*
X40335000Y-30945000D03*
X40977500Y-30945000D03*
X39035000Y-33825000D03*
X39675000Y-33825000D03*
X40335000Y-33825000D03*
X40975000Y-33825000D03*
%TD*%
D14*
%TO.C,R3*%
X29970000Y-39370000D03*
X30990000Y-39370000D03*
%TD*%
D15*
%TO.C,R6*%
X34925000Y-34415000D03*
X34925000Y-35435000D03*
%TD*%
D16*
%TO.C,D19*%
X156189585Y-34694300D03*
X154967985Y-34249674D03*
X154283945Y-36129060D03*
X155505545Y-36573686D03*
%TD*%
D17*
%TO.C,C20*%
X86040000Y-30480000D03*
X84140000Y-30480000D03*
%TD*%
D18*
%TO.C,D44*%
X73090000Y-93980000D03*
X71690000Y-93980000D03*
%TD*%
D19*
%TO.C,C75*%
X148616746Y-104520113D03*
X147671330Y-104686815D03*
%TD*%
D20*
%TO.C,R43*%
X68455000Y-60325000D03*
X67435000Y-60325000D03*
%TD*%
D14*
%TO.C,R42*%
X58545000Y-24765000D03*
X59565000Y-24765000D03*
%TD*%
D21*
%TO.C,R1*%
X44257500Y-34925000D03*
X47182500Y-34925000D03*
%TD*%
D20*
%TO.C,R21*%
X50675000Y-38735000D03*
X49655000Y-38735000D03*
%TD*%
D22*
%TO.C,C65*%
X174025379Y-59040263D03*
X174353719Y-59942367D03*
%TD*%
D23*
%TO.C,C68*%
X175806815Y-76551330D03*
X175640113Y-77496746D03*
%TD*%
D24*
%TO.C,C63*%
X167976973Y-48897520D03*
X168594049Y-49632922D03*
%TD*%
D15*
%TO.C,R17*%
X27305000Y-46480000D03*
X27305000Y-47500000D03*
%TD*%
D25*
%TO.C,C12*%
X46200000Y-41275000D03*
X45240000Y-41275000D03*
%TD*%
D26*
%TO.C,U8*%
X76167527Y-49530000D03*
X77136264Y-50498736D03*
X78105000Y-51467473D03*
X77136264Y-48561264D03*
X78105000Y-49530000D03*
X79073736Y-50498736D03*
X78105000Y-47592527D03*
X79073736Y-48561264D03*
X80042473Y-49530000D03*
D27*
X72315563Y-50016136D03*
X72669117Y-50369689D03*
X73022670Y-50723243D03*
X73376223Y-51076796D03*
X73729777Y-51430349D03*
X74083330Y-51783903D03*
X74436884Y-52137456D03*
X74790437Y-52491010D03*
X75143990Y-52844563D03*
X75497544Y-53198116D03*
X75851097Y-53551670D03*
X76204651Y-53905223D03*
X76558204Y-54258777D03*
X76911757Y-54612330D03*
X77265311Y-54965883D03*
X77618864Y-55319437D03*
D28*
X78591136Y-55319437D03*
X78944689Y-54965883D03*
X79298243Y-54612330D03*
X79651796Y-54258777D03*
X80005349Y-53905223D03*
X80358903Y-53551670D03*
X80712456Y-53198116D03*
X81066010Y-52844563D03*
X81419563Y-52491010D03*
X81773116Y-52137456D03*
X82126670Y-51783903D03*
X82480223Y-51430349D03*
X82833777Y-51076796D03*
X83187330Y-50723243D03*
X83540883Y-50369689D03*
X83894437Y-50016136D03*
D27*
X83894437Y-49043864D03*
X83540883Y-48690311D03*
X83187330Y-48336757D03*
X82833777Y-47983204D03*
X82480223Y-47629651D03*
X82126670Y-47276097D03*
X81773116Y-46922544D03*
X81419563Y-46568990D03*
X81066010Y-46215437D03*
X80712456Y-45861884D03*
X80358903Y-45508330D03*
X80005349Y-45154777D03*
X79651796Y-44801223D03*
X79298243Y-44447670D03*
X78944689Y-44094117D03*
X78591136Y-43740563D03*
D28*
X77618864Y-43740563D03*
X77265311Y-44094117D03*
X76911757Y-44447670D03*
X76558204Y-44801223D03*
X76204651Y-45154777D03*
X75851097Y-45508330D03*
X75497544Y-45861884D03*
X75143990Y-46215437D03*
X74790437Y-46568990D03*
X74436884Y-46922544D03*
X74083330Y-47276097D03*
X73729777Y-47629651D03*
X73376223Y-47983204D03*
X73022670Y-48336757D03*
X72669117Y-48690311D03*
X72315563Y-49043864D03*
%TD*%
D29*
%TO.C,C84*%
X108839887Y-77496746D03*
X108673185Y-76551330D03*
%TD*%
D15*
%TO.C,R59*%
X95885000Y-57910000D03*
X95885000Y-58930000D03*
%TD*%
D30*
%TO.C,C2*%
X24765000Y-39215000D03*
X24765000Y-38255000D03*
%TD*%
D25*
%TO.C,C104*%
X85570000Y-70485000D03*
X84610000Y-70485000D03*
%TD*%
D31*
%TO.C,C102*%
X87315000Y-75565000D03*
X89215000Y-75565000D03*
%TD*%
D14*
%TO.C,R36*%
X84580000Y-34290000D03*
X85600000Y-34290000D03*
%TD*%
D32*
%TO.C,D27*%
X180534631Y-78532404D03*
X180760374Y-77252154D03*
X178790759Y-76904858D03*
X178565016Y-78185108D03*
%TD*%
D11*
%TO.C,C87*%
X91595000Y-86360000D03*
X92555000Y-86360000D03*
%TD*%
D20*
%TO.C,R22*%
X48135000Y-51435000D03*
X47115000Y-51435000D03*
%TD*%
D33*
%TO.C,C45*%
X63500000Y-73345000D03*
X63500000Y-75245000D03*
%TD*%
D34*
%TO.C,J5*%
X92150000Y-27540000D03*
X91350000Y-27540000D03*
D35*
X90150000Y-27540000D03*
X89150000Y-27540000D03*
X88650000Y-27540000D03*
X87650000Y-27540000D03*
D34*
X86450000Y-27540000D03*
X85650000Y-27540000D03*
X85650000Y-27540000D03*
X86450000Y-27540000D03*
D35*
X87150000Y-27540000D03*
X88150000Y-27540000D03*
X89650000Y-27540000D03*
X90650000Y-27540000D03*
D34*
X91350000Y-27540000D03*
X92150000Y-27540000D03*
%TD*%
D36*
%TO.C,D28*%
X178665700Y-85069585D03*
X179110326Y-83847985D03*
X177230940Y-83163945D03*
X176786314Y-84385545D03*
%TD*%
D37*
%TO.C,U13*%
X63150000Y-81590000D03*
X63850000Y-81590000D03*
D38*
X62575000Y-82565000D03*
D39*
X63540000Y-82565000D03*
D38*
X64425000Y-82565000D03*
%TD*%
D25*
%TO.C,C9*%
X34770000Y-50165000D03*
X33810000Y-50165000D03*
%TD*%
D33*
%TO.C,C42*%
X74295001Y-97474999D03*
X74295001Y-99374999D03*
%TD*%
%TO.C,C95*%
X62230000Y-99380000D03*
X62230000Y-101280000D03*
%TD*%
D40*
%TO.C,C34*%
X83148249Y-54573249D03*
X84491751Y-55916751D03*
%TD*%
D20*
%TO.C,R34*%
X76710000Y-31115000D03*
X75690000Y-31115000D03*
%TD*%
D41*
%TO.C,D8*%
X103240000Y-70470000D03*
X103240000Y-71770000D03*
X105240000Y-71770000D03*
X105240000Y-70470000D03*
%TD*%
D20*
%TO.C,R35*%
X101984999Y-53340000D03*
X100964999Y-53340000D03*
%TD*%
D42*
%TO.C,D40*%
X111946455Y-95690788D03*
X112782079Y-96686645D03*
X114314167Y-95401070D03*
X113478543Y-94405213D03*
%TD*%
D43*
%TO.C,C81*%
X116503027Y-93342480D03*
X115885951Y-92607078D03*
%TD*%
D44*
%TO.C,U12*%
X79052500Y-91735000D03*
X79052500Y-92385000D03*
X79052500Y-93035000D03*
X79052500Y-93685000D03*
X84777500Y-93685000D03*
X84777500Y-93035000D03*
X84777500Y-92385000D03*
X84777500Y-91735000D03*
%TD*%
D14*
%TO.C,R29*%
X52830000Y-32893000D03*
X53850000Y-32893000D03*
%TD*%
D45*
%TO.C,D21*%
X167806645Y-41662079D03*
X166810788Y-40826455D03*
X165525213Y-42358543D03*
X166521070Y-43194167D03*
%TD*%
D14*
%TO.C,R55*%
X91565000Y-85090000D03*
X92585000Y-85090000D03*
%TD*%
D46*
%TO.C,D1*%
X19050000Y-55092500D03*
X19050000Y-56667500D03*
%TD*%
D31*
%TO.C,C8*%
X33975000Y-52070000D03*
X35875000Y-52070000D03*
%TD*%
D47*
%TO.C,J4*%
X21825000Y-31675000D03*
X21825000Y-32475000D03*
D48*
X21825000Y-33675000D03*
X21825000Y-34675000D03*
X21825000Y-35175000D03*
X21825000Y-36175000D03*
D47*
X21825000Y-37375000D03*
X21825000Y-38175000D03*
X21825000Y-38175000D03*
X21825000Y-37375000D03*
D48*
X21825000Y-36675000D03*
X21825000Y-35675000D03*
X21825000Y-34175000D03*
X21825000Y-33175000D03*
D47*
X21825000Y-32475000D03*
X21825000Y-31675000D03*
%TD*%
D49*
%TO.C,C35*%
X82889411Y-56854411D03*
X82210589Y-56175589D03*
%TD*%
D30*
%TO.C,C6*%
X48895000Y-31595000D03*
X48895000Y-30635000D03*
%TD*%
D50*
%TO.C,D23*%
X176339990Y-52182917D03*
X175689990Y-51057083D03*
X173957940Y-52057083D03*
X174607940Y-53182917D03*
%TD*%
D51*
%TO.C,D35*%
X141590000Y-110120000D03*
X142890000Y-110120000D03*
X142890000Y-108120000D03*
X141590000Y-108120000D03*
%TD*%
D33*
%TO.C,C18*%
X69850000Y-33975000D03*
X69850000Y-35875000D03*
%TD*%
D11*
%TO.C,C100*%
X89055000Y-81280000D03*
X90015000Y-81280000D03*
%TD*%
D17*
%TO.C,C36*%
X59370000Y-41910000D03*
X57470000Y-41910000D03*
%TD*%
D52*
%TO.C,C80*%
X120752922Y-97474049D03*
X120017520Y-96856973D03*
%TD*%
D46*
%TO.C,D2*%
X19050000Y-59537500D03*
X19050000Y-61112500D03*
%TD*%
D30*
%TO.C,C26*%
X19050000Y-75410000D03*
X19050000Y-74450000D03*
%TD*%
D53*
%TO.C,U11*%
X72065000Y-91790000D03*
X72065000Y-91090000D03*
D54*
X73040000Y-92365000D03*
D55*
X73040000Y-91400000D03*
D54*
X73040000Y-90515000D03*
%TD*%
D56*
%TO.C,C54*%
X120017520Y-45383027D03*
X120752922Y-44765951D03*
%TD*%
D57*
%TO.C,D29*%
X175689990Y-91182917D03*
X176339990Y-90057083D03*
X174607940Y-89057083D03*
X173957940Y-90182917D03*
%TD*%
D14*
%TO.C,R25*%
X75690000Y-60325000D03*
X76710000Y-60325000D03*
%TD*%
D44*
%TO.C,U18*%
X79052500Y-74590000D03*
X79052500Y-75240000D03*
X79052500Y-75890000D03*
X79052500Y-76540000D03*
X84777500Y-76540000D03*
X84777500Y-75890000D03*
X84777500Y-75240000D03*
X84777500Y-74590000D03*
%TD*%
D20*
%TO.C,R11*%
X74170000Y-33655000D03*
X73150000Y-33655000D03*
%TD*%
D58*
%TO.C,C55*%
X124824308Y-41915136D03*
X125655692Y-41435136D03*
%TD*%
D59*
%TO.C,D41*%
X108140010Y-90057083D03*
X108790010Y-91182917D03*
X110522060Y-90182917D03*
X109872060Y-89057083D03*
%TD*%
D60*
%TO.C,C77*%
X136808670Y-104686815D03*
X135863254Y-104520113D03*
%TD*%
D14*
%TO.C,R71*%
X84580000Y-71755000D03*
X85600000Y-71755000D03*
%TD*%
D25*
%TO.C,C24*%
X70330000Y-55245000D03*
X69370000Y-55245000D03*
%TD*%
D10*
%TO.C,C98*%
X60325001Y-99850000D03*
X60325001Y-100810000D03*
%TD*%
D61*
%TO.C,Y1*%
X65950000Y-57090000D03*
X67400000Y-57090000D03*
X67400000Y-55940000D03*
X65950000Y-55940000D03*
%TD*%
D62*
%TO.C,C60*%
X153417633Y-39006281D03*
X154319737Y-39334621D03*
%TD*%
D31*
%TO.C,C14*%
X49850000Y-41275000D03*
X51750000Y-41275000D03*
%TD*%
D63*
%TO.C,C82*%
X113035136Y-88535692D03*
X112555136Y-87704308D03*
%TD*%
D64*
%TO.C,U5*%
X46857500Y-39685000D03*
X46857500Y-38735000D03*
X46857500Y-37785000D03*
X44582500Y-37785000D03*
X44582500Y-38735000D03*
X44582500Y-39685000D03*
%TD*%
D20*
%TO.C,R31*%
X53850000Y-34290000D03*
X52830000Y-34290000D03*
%TD*%
D17*
%TO.C,C99*%
X90485000Y-46355000D03*
X88585000Y-46355000D03*
%TD*%
D14*
%TO.C,R64*%
X65530000Y-97155000D03*
X66550000Y-97155000D03*
%TD*%
D46*
%TO.C,D3*%
X19050000Y-63982500D03*
X19050000Y-65557500D03*
%TD*%
D25*
%TO.C,C11*%
X74140000Y-34925000D03*
X73180000Y-34925000D03*
%TD*%
D11*
%TO.C,C21*%
X84610000Y-32385000D03*
X85570000Y-32385000D03*
%TD*%
D65*
%TO.C,C62*%
X163727078Y-44765951D03*
X164462480Y-45383027D03*
%TD*%
D33*
%TO.C,C40*%
X79375001Y-97474999D03*
X79375001Y-99374999D03*
%TD*%
D30*
%TO.C,C23*%
X64135000Y-56995000D03*
X64135000Y-56035000D03*
%TD*%
D14*
%TO.C,R47*%
X73150000Y-41275000D03*
X74170000Y-41275000D03*
%TD*%
D20*
%TO.C,R19*%
X28450000Y-40640000D03*
X27430000Y-40640000D03*
%TD*%
%TO.C,R2*%
X74170000Y-36195000D03*
X73150000Y-36195000D03*
%TD*%
D15*
%TO.C,R12*%
X26035000Y-46480000D03*
X26035000Y-47500000D03*
%TD*%
D66*
%TO.C,C70*%
X171924864Y-87704308D03*
X171444864Y-88535692D03*
%TD*%
D11*
%TO.C,C32*%
X68100000Y-46990000D03*
X69060000Y-46990000D03*
%TD*%
D67*
%TO.C,C57*%
X135863254Y-37719887D03*
X136808670Y-37553185D03*
%TD*%
D68*
%TO.C,D38*%
X122177083Y-104569990D03*
X123302917Y-105219990D03*
X124302917Y-103487940D03*
X123177083Y-102837940D03*
%TD*%
D15*
%TO.C,R5*%
X33655000Y-34415000D03*
X33655000Y-35435000D03*
%TD*%
D69*
%TO.C,C71*%
X168594049Y-92607078D03*
X167976973Y-93342480D03*
%TD*%
D14*
%TO.C,R50*%
X99820000Y-80645000D03*
X100840000Y-80645000D03*
%TD*%
D25*
%TO.C,C10*%
X34770000Y-48895000D03*
X33810000Y-48895000D03*
%TD*%
D70*
%TO.C,D16*%
X136107846Y-32599626D03*
X134827596Y-32825369D03*
X135174892Y-34794984D03*
X136455142Y-34569241D03*
%TD*%
D33*
%TO.C,C44*%
X66040000Y-73345000D03*
X66040000Y-75245000D03*
%TD*%
D14*
%TO.C,R60*%
X89025000Y-82550000D03*
X90045000Y-82550000D03*
%TD*%
%TO.C,R20*%
X19556000Y-52832000D03*
X20576000Y-52832000D03*
%TD*%
D71*
%TO.C,C52*%
X112555136Y-54535692D03*
X113035136Y-53704308D03*
%TD*%
D72*
%TO.C,U15*%
X63205000Y-91117500D03*
X62555000Y-91117500D03*
X61905000Y-91117500D03*
X61255000Y-91117500D03*
X61255000Y-96842500D03*
X61905000Y-96842500D03*
X62555000Y-96842500D03*
X63205000Y-96842500D03*
%TD*%
D73*
%TO.C,D14*%
X123302917Y-37020010D03*
X122177083Y-37670010D03*
X123177083Y-39402060D03*
X124302917Y-38752060D03*
%TD*%
D74*
%TO.C,C50*%
X108673185Y-65688670D03*
X108839887Y-64743254D03*
%TD*%
D20*
%TO.C,R9*%
X34800000Y-38735000D03*
X33780000Y-38735000D03*
%TD*%
D49*
%TO.C,C38*%
X87334411Y-52409411D03*
X86655589Y-51730589D03*
%TD*%
D14*
%TO.C,R68*%
X89025000Y-48260000D03*
X90045000Y-48260000D03*
%TD*%
D20*
%TO.C,R13*%
X20576000Y-50292000D03*
X19556000Y-50292000D03*
%TD*%
D33*
%TO.C,C46*%
X60959999Y-73345000D03*
X60959999Y-75245000D03*
%TD*%
D75*
%TO.C,SW3*%
X182590000Y-105220000D03*
X182590000Y-113220000D03*
X178090000Y-105220000D03*
X178090000Y-113220000D03*
%TD*%
D14*
%TO.C,R26*%
X73150000Y-61595000D03*
X74170000Y-61595000D03*
%TD*%
D11*
%TO.C,C16*%
X75720000Y-62865000D03*
X76680000Y-62865000D03*
%TD*%
D76*
%TO.C,C56*%
X130160263Y-39334621D03*
X131062367Y-39006281D03*
%TD*%
D20*
%TO.C,R30*%
X53850000Y-35560000D03*
X52830000Y-35560000D03*
%TD*%
D77*
%TO.C,D25*%
X180760374Y-64987846D03*
X180534631Y-63707596D03*
X178565016Y-64054892D03*
X178790759Y-65335142D03*
%TD*%
D78*
%TO.C,U4*%
X31455807Y-43815000D03*
X30480000Y-42839193D03*
X30480000Y-44790807D03*
X29504193Y-43815000D03*
D79*
X32760419Y-43302348D03*
X32406866Y-42948794D03*
X32053313Y-42595241D03*
X31699759Y-42241687D03*
X31346206Y-41888134D03*
X30992652Y-41534581D03*
D80*
X29967348Y-41534581D03*
X29613794Y-41888134D03*
X29260241Y-42241687D03*
X28906687Y-42595241D03*
X28553134Y-42948794D03*
X28199581Y-43302348D03*
D79*
X28199581Y-44327652D03*
X28553134Y-44681206D03*
X28906687Y-45034759D03*
X29260241Y-45388313D03*
X29613794Y-45741866D03*
X29967348Y-46095419D03*
D80*
X30992652Y-46095419D03*
X31346206Y-45741866D03*
X31699759Y-45388313D03*
X32053313Y-45034759D03*
X32406866Y-44681206D03*
X32760419Y-44327652D03*
%TD*%
D14*
%TO.C,R69*%
X91565000Y-80010000D03*
X92585000Y-80010000D03*
%TD*%
D81*
%TO.C,D7*%
X56420000Y-52705000D03*
X60420000Y-52705000D03*
%TD*%
D25*
%TO.C,C76*%
X142720000Y-105120000D03*
X141760000Y-105120000D03*
%TD*%
D11*
%TO.C,C89*%
X87784999Y-90805000D03*
X88744999Y-90805000D03*
%TD*%
D82*
%TO.C,D12*%
X112782079Y-45553355D03*
X111946455Y-46549212D03*
X113478543Y-47834787D03*
X114314167Y-46838930D03*
%TD*%
D11*
%TO.C,C15*%
X73180000Y-62865000D03*
X74140000Y-62865000D03*
%TD*%
D83*
%TO.C,Q2*%
X101297500Y-49850000D03*
X101297500Y-51750000D03*
X103172500Y-50800000D03*
%TD*%
D25*
%TO.C,C90*%
X85570000Y-87630000D03*
X84610000Y-87630000D03*
%TD*%
D84*
%TO.C,D15*%
X129512015Y-34249674D03*
X128290415Y-34694300D03*
X128974455Y-36573686D03*
X130196055Y-36129060D03*
%TD*%
D85*
%TO.C,D32*%
X161177083Y-105219990D03*
X162302917Y-104569990D03*
X161302917Y-102837940D03*
X160177083Y-103487940D03*
%TD*%
D14*
%TO.C,R54*%
X89025000Y-50800000D03*
X90045000Y-50800000D03*
%TD*%
D33*
%TO.C,C47*%
X58420000Y-73345000D03*
X58420000Y-75245000D03*
%TD*%
D86*
%TO.C,J6*%
X28575000Y-27350000D03*
X28575000Y-23450000D03*
X29845000Y-27350000D03*
X29845000Y-23450000D03*
X31115000Y-27350000D03*
X31115000Y-23450000D03*
X32385000Y-27350000D03*
X32385000Y-23450000D03*
X33655000Y-27350000D03*
X33655000Y-23450000D03*
X34925000Y-27350000D03*
X34925000Y-23450000D03*
X36195000Y-27350000D03*
X36195000Y-23450000D03*
%TD*%
D20*
%TO.C,R10*%
X34800000Y-40005000D03*
X33780000Y-40005000D03*
%TD*%
D87*
%TO.C,C79*%
X125655692Y-100804864D03*
X124824308Y-100324864D03*
%TD*%
D88*
%TO.C,D24*%
X179110326Y-58392015D03*
X178665700Y-57170415D03*
X176786314Y-57854455D03*
X177230940Y-59076055D03*
%TD*%
D11*
%TO.C,C33*%
X68100000Y-52705000D03*
X69060000Y-52705000D03*
%TD*%
%TO.C,C29*%
X86515000Y-64770000D03*
X87475000Y-64770000D03*
%TD*%
D15*
%TO.C,R66*%
X94615000Y-60450000D03*
X94615000Y-61470000D03*
%TD*%
D11*
%TO.C,C105*%
X87784999Y-77469999D03*
X88744999Y-77469999D03*
%TD*%
D14*
%TO.C,R67*%
X89025000Y-80010000D03*
X90045000Y-80010000D03*
%TD*%
%TO.C,R27*%
X75690000Y-61595000D03*
X76710000Y-61595000D03*
%TD*%
%TO.C,R48*%
X73150000Y-42545000D03*
X74170000Y-42545000D03*
%TD*%
D11*
%TO.C,C93*%
X89055000Y-83820000D03*
X90015000Y-83820000D03*
%TD*%
D89*
%TO.C,SW2*%
X19495000Y-72680000D03*
X27495000Y-72680000D03*
X19495000Y-77180000D03*
X27495000Y-77180000D03*
%TD*%
D25*
%TO.C,C97*%
X66520000Y-95885000D03*
X65560000Y-95885000D03*
%TD*%
D33*
%TO.C,C41*%
X76835000Y-97475000D03*
X76835000Y-99375000D03*
%TD*%
D90*
%TO.C,D33*%
X154967985Y-107990326D03*
X156189585Y-107545700D03*
X155505545Y-105666314D03*
X154283945Y-106110940D03*
%TD*%
D91*
%TO.C,C78*%
X131062367Y-103233719D03*
X130160263Y-102905379D03*
%TD*%
D17*
%TO.C,C85*%
X90485000Y-41275000D03*
X88585000Y-41275000D03*
%TD*%
D92*
%TO.C,R70*%
X75565000Y-73467500D03*
X75565000Y-76392500D03*
%TD*%
D93*
%TO.C,U6*%
X60985000Y-32625000D03*
X60985000Y-34925000D03*
D94*
X67285000Y-34925000D03*
D93*
X60985000Y-37225000D03*
%TD*%
D14*
%TO.C,R39*%
X58545000Y-23495000D03*
X59565000Y-23495000D03*
%TD*%
D20*
%TO.C,R32*%
X39245000Y-47625000D03*
X38225000Y-47625000D03*
%TD*%
D53*
%TO.C,U10*%
X68890000Y-91790000D03*
X68890000Y-91090000D03*
D54*
X69865000Y-92365000D03*
D55*
X69865000Y-91400000D03*
D54*
X69865000Y-90515000D03*
%TD*%
D20*
%TO.C,R37*%
X76710000Y-28575000D03*
X75690000Y-28575000D03*
%TD*%
D15*
%TO.C,R52*%
X97155000Y-55370000D03*
X97155000Y-56390000D03*
%TD*%
D95*
%TO.C,C59*%
X147671330Y-37553185D03*
X148616746Y-37719887D03*
%TD*%
D11*
%TO.C,C86*%
X89055000Y-86360000D03*
X90015000Y-86360000D03*
%TD*%
D14*
%TO.C,R53*%
X89025000Y-85090000D03*
X90045000Y-85090000D03*
%TD*%
D96*
%TO.C,D37*%
X128290415Y-107545700D03*
X129512015Y-107990326D03*
X130196055Y-106110940D03*
X128974455Y-105666314D03*
%TD*%
D97*
%TO.C,C64*%
X171444864Y-53704308D03*
X171924864Y-54535692D03*
%TD*%
D98*
%TO.C,D13*%
X117669212Y-40826455D03*
X116673355Y-41662079D03*
X117958930Y-43194167D03*
X118954787Y-42358543D03*
%TD*%
D14*
%TO.C,R62*%
X91565000Y-82550000D03*
X92585000Y-82550000D03*
%TD*%
D99*
%TO.C,C66*%
X175640113Y-64743254D03*
X175806815Y-65688670D03*
%TD*%
D100*
%TO.C,D39*%
X116673355Y-100577921D03*
X117669212Y-101413545D03*
X118954787Y-99881457D03*
X117958930Y-99045833D03*
%TD*%
D17*
%TO.C,C30*%
X69530000Y-50800000D03*
X67630000Y-50800000D03*
%TD*%
D101*
%TO.C,D42*%
X105369674Y-83847985D03*
X105814300Y-85069585D03*
X107693686Y-84385545D03*
X107249060Y-83163945D03*
%TD*%
D11*
%TO.C,C101*%
X91595000Y-81280000D03*
X92555000Y-81280000D03*
%TD*%
D102*
%TO.C,L2*%
X55395000Y-46990000D03*
X61445000Y-46990000D03*
%TD*%
D31*
%TO.C,C88*%
X87315000Y-92710000D03*
X89215000Y-92710000D03*
%TD*%
D20*
%TO.C,R38*%
X76710000Y-26035000D03*
X75690000Y-26035000D03*
%TD*%
D14*
%TO.C,R23*%
X49655000Y-37465000D03*
X50675000Y-37465000D03*
%TD*%
D53*
%TO.C,U17*%
X72065000Y-74645000D03*
X72065000Y-73945000D03*
D54*
X73040000Y-75220000D03*
D55*
X73040000Y-74255000D03*
D54*
X73040000Y-73370000D03*
%TD*%
D17*
%TO.C,C92*%
X90485000Y-43815000D03*
X88585000Y-43815000D03*
%TD*%
D103*
%TO.C,D18*%
X149652404Y-32825369D03*
X148372154Y-32599626D03*
X148024858Y-34569241D03*
X149305108Y-34794984D03*
%TD*%
D14*
%TO.C,R40*%
X58545000Y-22225000D03*
X59565000Y-22225000D03*
%TD*%
%TO.C,R24*%
X73150000Y-60325000D03*
X74170000Y-60325000D03*
%TD*%
D104*
%TO.C,D36*%
X134827596Y-109414631D03*
X136107846Y-109640374D03*
X136455142Y-107670759D03*
X135174892Y-107445016D03*
%TD*%
D20*
%TO.C,R16*%
X27180000Y-51562000D03*
X26160000Y-51562000D03*
%TD*%
D30*
%TO.C,C17*%
X59055000Y-37945000D03*
X59055000Y-36985000D03*
%TD*%
D11*
%TO.C,C58*%
X141760000Y-37120000D03*
X142720000Y-37120000D03*
%TD*%
%TO.C,C31*%
X68100000Y-48260000D03*
X69060000Y-48260000D03*
%TD*%
D33*
%TO.C,C43*%
X71755001Y-97475000D03*
X71755001Y-99375000D03*
%TD*%
D14*
%TO.C,R65*%
X85850000Y-45085000D03*
X86870000Y-45085000D03*
%TD*%
D105*
%TO.C,U3*%
X44582500Y-30800000D03*
X44582500Y-31750000D03*
X44582500Y-32700000D03*
X46857500Y-32700000D03*
X46857500Y-30800000D03*
%TD*%
D14*
%TO.C,R49*%
X73150000Y-43815000D03*
X74170000Y-43815000D03*
%TD*%
D106*
%TO.C,D5*%
X88265000Y-32537500D03*
X88265000Y-30962500D03*
%TD*%
D107*
%TO.C,D9*%
X103945369Y-63707596D03*
X103719626Y-64987846D03*
X105689241Y-65335142D03*
X105914984Y-64054892D03*
%TD*%
D41*
%TO.C,D26*%
X181240000Y-71770000D03*
X181240000Y-70470000D03*
X179240000Y-70470000D03*
X179240000Y-71770000D03*
%TD*%
D92*
%TO.C,R56*%
X75565000Y-90612500D03*
X75565000Y-93537500D03*
%TD*%
D108*
%TO.C,D20*%
X162302917Y-37670010D03*
X161177083Y-37020010D03*
X160177083Y-38752060D03*
X161302917Y-39402060D03*
%TD*%
D51*
%TO.C,D17*%
X142890000Y-32120000D03*
X141590000Y-32120000D03*
X141590000Y-34120000D03*
X142890000Y-34120000D03*
%TD*%
D20*
%TO.C,R41*%
X76710000Y-23495000D03*
X75690000Y-23495000D03*
%TD*%
%TO.C,R7*%
X74170000Y-37465000D03*
X73150000Y-37465000D03*
%TD*%
D10*
%TO.C,C22*%
X25908000Y-24920000D03*
X25908000Y-25880000D03*
%TD*%
D109*
%TO.C,SW1*%
X24010000Y-46835000D03*
X21710000Y-45085000D03*
X24010000Y-43335000D03*
%TD*%
D33*
%TO.C,C48*%
X55880000Y-73345000D03*
X55880000Y-75245000D03*
%TD*%
D12*
%TO.C,U1*%
X29870000Y-32475000D03*
X31090000Y-32475000D03*
X29870000Y-31525000D03*
X31090000Y-31525000D03*
D13*
X29507500Y-30945000D03*
X30150000Y-30945000D03*
X30810000Y-30945000D03*
X31452500Y-30945000D03*
X29510000Y-33825000D03*
X30150000Y-33825000D03*
X30810000Y-33825000D03*
X31450000Y-33825000D03*
%TD*%
D14*
%TO.C,R4*%
X29970000Y-38100000D03*
X30990000Y-38100000D03*
%TD*%
D53*
%TO.C,U16*%
X68890000Y-74645000D03*
X68890000Y-73945000D03*
D54*
X69865000Y-75220000D03*
D55*
X69865000Y-74255000D03*
D54*
X69865000Y-73370000D03*
%TD*%
D14*
%TO.C,R61*%
X89025000Y-49530000D03*
X90045000Y-49530000D03*
%TD*%
D110*
%TO.C,D31*%
X166810788Y-101413545D03*
X167806645Y-100577921D03*
X166521070Y-99045833D03*
X165525213Y-99881457D03*
%TD*%
D111*
%TO.C,C72*%
X164462480Y-96856973D03*
X163727078Y-97474049D03*
%TD*%
D112*
%TO.C,C73*%
X159655692Y-100324864D03*
X158824308Y-100804864D03*
%TD*%
D113*
%TO.C,C61*%
X158824308Y-41435136D03*
X159655692Y-41915136D03*
%TD*%
D33*
%TO.C,C39*%
X81915001Y-97474999D03*
X81915001Y-99374999D03*
%TD*%
D17*
%TO.C,C7*%
X35875000Y-46990000D03*
X33975000Y-46990000D03*
%TD*%
D14*
%TO.C,R57*%
X84580000Y-88900000D03*
X85600000Y-88900000D03*
%TD*%
%TO.C,R44*%
X58545000Y-26035000D03*
X59565000Y-26035000D03*
%TD*%
D30*
%TO.C,C25*%
X84455000Y-62075000D03*
X84455000Y-61115000D03*
%TD*%
D114*
%TO.C,D11*%
X108790010Y-51057083D03*
X108140010Y-52182917D03*
X109872060Y-53182917D03*
X110522060Y-52057083D03*
%TD*%
D17*
%TO.C,C3*%
X31430000Y-36195000D03*
X29530000Y-36195000D03*
%TD*%
D30*
%TO.C,C49*%
X108240000Y-71600000D03*
X108240000Y-70640000D03*
%TD*%
D14*
%TO.C,R18*%
X26160000Y-52832000D03*
X27180000Y-52832000D03*
%TD*%
D83*
%TO.C,Q1*%
X22430500Y-50612000D03*
X22430500Y-52512000D03*
X24305500Y-51562000D03*
%TD*%
D115*
%TO.C,U9*%
X86015000Y-59932500D03*
D116*
X85877500Y-60845000D03*
X85877500Y-61345000D03*
X85877500Y-61845000D03*
X85877500Y-62345000D03*
D115*
X86015000Y-63257500D03*
X86515000Y-63257500D03*
X87015000Y-63257500D03*
X87515000Y-63257500D03*
X88015000Y-63257500D03*
X88515000Y-63257500D03*
X89015000Y-63257500D03*
X89515000Y-63257500D03*
X90015000Y-63257500D03*
X90515000Y-63257500D03*
D116*
X90652500Y-62345000D03*
X90652500Y-61845000D03*
X90652500Y-61345000D03*
X90652500Y-60845000D03*
D115*
X90515000Y-59932500D03*
X90015000Y-59932500D03*
X89515000Y-59932500D03*
X89015000Y-59932500D03*
X88515000Y-59932500D03*
X88015000Y-59932500D03*
X87515000Y-59932500D03*
X87015000Y-59932500D03*
X86515000Y-59932500D03*
%TD*%
D117*
%TO.C,C74*%
X154319737Y-102905379D03*
X153417633Y-103233719D03*
%TD*%
D20*
%TO.C,R28*%
X64645000Y-39370000D03*
X63625000Y-39370000D03*
%TD*%
D118*
%TO.C,C69*%
X174353719Y-82297633D03*
X174025379Y-83199737D03*
%TD*%
D46*
%TO.C,D4*%
X19050000Y-68427500D03*
X19050000Y-70002500D03*
%TD*%
D119*
%TO.C,U7*%
X55775000Y-32270000D03*
X55775000Y-32770000D03*
X55775000Y-33270000D03*
X55775000Y-33770000D03*
X57255000Y-33770000D03*
X57255000Y-33270000D03*
X57255000Y-32770000D03*
X57255000Y-32270000D03*
%TD*%
D120*
%TO.C,R63*%
X63692500Y-88265000D03*
X60767500Y-88265000D03*
%TD*%
D121*
%TO.C,D10*%
X105814300Y-57170415D03*
X105369674Y-58392015D03*
X107249060Y-59076055D03*
X107693686Y-57854455D03*
%TD*%
D14*
%TO.C,R58*%
X85850000Y-42545000D03*
X86870000Y-42545000D03*
%TD*%
D122*
%TO.C,D46*%
X71690000Y-76835000D03*
X73090000Y-76835000D03*
%TD*%
D11*
%TO.C,C27*%
X179860000Y-104775000D03*
X180820000Y-104775000D03*
%TD*%
D123*
%TO.C,C1*%
X24765000Y-31430000D03*
X24765000Y-29530000D03*
%TD*%
D11*
%TO.C,C103*%
X87785000Y-73660001D03*
X88745000Y-73660001D03*
%TD*%
D40*
%TO.C,C37*%
X85053249Y-52668249D03*
X86396751Y-54011751D03*
%TD*%
D14*
%TO.C,R51*%
X85850000Y-40005000D03*
X86870000Y-40005000D03*
%TD*%
D25*
%TO.C,C5*%
X74140000Y-40005000D03*
X73180000Y-40005000D03*
%TD*%
D124*
%TO.C,SW4*%
X61750000Y-25280000D03*
X63500000Y-22980000D03*
X65250000Y-25280000D03*
%TD*%
D102*
%TO.C,L1*%
X44600000Y-46990000D03*
X50650000Y-46990000D03*
%TD*%
D125*
%TO.C,D43*%
X103719626Y-77252154D03*
X103945369Y-78532404D03*
X105914984Y-78185108D03*
X105689241Y-76904858D03*
%TD*%
D20*
%TO.C,R46*%
X39245000Y-46355000D03*
X38225000Y-46355000D03*
%TD*%
D11*
%TO.C,C19*%
X58575000Y-28575000D03*
X59535000Y-28575000D03*
%TD*%
D37*
%TO.C,U14*%
X63150000Y-84765000D03*
X63850000Y-84765000D03*
D38*
X62575000Y-85740000D03*
D39*
X63540000Y-85740000D03*
D38*
X64425000Y-85740000D03*
%TD*%
D11*
%TO.C,C94*%
X91595000Y-83820000D03*
X92555000Y-83820000D03*
%TD*%
D126*
%TO.C,C83*%
X110454621Y-83199737D03*
X110126281Y-82297633D03*
%TD*%
D127*
%TO.C,D34*%
X148372154Y-109640374D03*
X149652404Y-109414631D03*
X149305108Y-107445016D03*
X148024858Y-107670759D03*
%TD*%
D128*
%TO.C,C51*%
X110126281Y-59942367D03*
X110454621Y-59040263D03*
%TD*%
D20*
%TO.C,R8*%
X74170000Y-38735000D03*
X73150000Y-38735000D03*
%TD*%
D11*
%TO.C,C91*%
X87785000Y-94615000D03*
X88745000Y-94615000D03*
%TD*%
D129*
%TO.C,C53*%
X115885951Y-49632922D03*
X116503027Y-48897520D03*
%TD*%
D106*
%TO.C,D6*%
X90805000Y-32537500D03*
X90805000Y-30962500D03*
%TD*%
D130*
%TO.C,D45*%
X60960000Y-85790000D03*
X60960000Y-84390000D03*
%TD*%
D131*
%TO.C,D30*%
X171697921Y-96686645D03*
X172533545Y-95690788D03*
X171001457Y-94405213D03*
X170165833Y-95401070D03*
%TD*%
D132*
%TO.C,D22*%
X172533545Y-46549212D03*
X171697921Y-45553355D03*
X170165833Y-46838930D03*
X171001457Y-47834787D03*
%TD*%
D133*
%TO.C,R33*%
X92710000Y-32260000D03*
X92710000Y-31240000D03*
%TD*%
D17*
%TO.C,C13*%
X42225000Y-38100000D03*
X40325000Y-38100000D03*
%TD*%
D33*
%TO.C,C4*%
X36830000Y-33975000D03*
X36830000Y-35875000D03*
%TD*%
D14*
%TO.C,R45*%
X69340000Y-56515000D03*
X70360000Y-56515000D03*
%TD*%
M02*
