M48
; DRILL file {KiCad 9.0.2} date 2026-03-28T23:26:54-0700
; FORMAT={-:-/ absolute / metric / decimal}
; #@! TF.CreationDate,2026-03-28T23:26:54-07:00
; #@! TF.GenerationSoftware,Kicad,Pcbnew,9.0.2
; #@! TF.FileFunction,MixedPlating,1,4
FMAT,2
METRIC
; #@! TA.AperFunction,Plated,PTH,ViaDrill
T1C0.150
; #@! TA.AperFunction,Plated,PTH,ViaDrill
T2C0.300
; #@! TA.AperFunction,Plated,PTH,ViaDrill
T3C0.305
; #@! TA.AperFunction,Plated,PTH,ComponentDrill
T4C0.600
; #@! TA.AperFunction,Plated,PTH,ComponentDrill
T5C0.750
; #@! TA.AperFunction,Plated,PTH,ComponentDrill
T6C0.950
; #@! TA.AperFunction,NonPlated,NPTH,ComponentDrill
T7C0.650
; #@! TA.AperFunction,NonPlated,NPTH,ComponentDrill
T8C0.991
; #@! TA.AperFunction,NonPlated,NPTH,ComponentDrill
T9C2.375
%
G90
G05
T1
X19.025Y-58.471
X19.05Y-57.76
X19.05Y-62.992
X19.05Y-67.361
X19.558Y-49.251
X19.761Y-75.413
X20.117Y-60.02
X20.803Y-77.191
X21.107Y-52.807
X22.403Y-51.892
X22.454Y-39.7
X22.708Y-30.302
X24.206Y-41.656
X25.197Y-25.883
X25.375Y-50.749
X25.857Y-40.894
X26.264Y-77.165
X26.492Y-41.478
X26.518Y-49.581
X26.67Y-24.917
X26.721Y-46.965
X27.432Y-42.723
X27.633Y-42.157
X27.661Y-50.927
X28.55Y-45.949
X28.575Y-41.631
X28.804Y-53.95
X29.058Y-46.711
X29.159Y-41.072
X29.845Y-25.146
X29.845Y-31.75
X29.845Y-32.385
X29.999Y-40.716
X30.48Y-31.75
X30.48Y-32.385
X30.836Y-52.959
X31.115Y-24.994
X31.115Y-29.21
X31.115Y-31.75
X31.115Y-32.385
X32.335Y-41.045
X32.385Y-29.21
X32.41Y-21.768
X32.868Y-45.949
X33.376Y-42.266
X33.579Y-41.707
X33.655Y-66.396
X34.925Y-29.21
X34.935Y-40.954
X35.687Y-44.907
X36.474Y-44.552
X37.795Y-24.841
X39.243Y-45.542
X39.243Y-48.438
X39.37Y-31.75
X39.37Y-32.385
X40.005Y-31.75
X40.005Y-32.385
X40.64Y-31.75
X40.64Y-32.385
X42.545Y-62.23
X44.907Y-21.692
X45.085Y-23.901
X45.415Y-32.182
X45.771Y-31.496
X46.545Y-21.78
X46.863Y-29.136
X46.99Y-27.305
X47.803Y-29.616
X48.26Y-23.495
X48.26Y-29.134
X48.692Y-29.566
X52.984Y-25.375
X53.111Y-77.038
X53.34Y-27.94
X53.42Y-35.987
X53.492Y-34.899
X53.67Y-82.601
X53.696Y-82.017
X54.305Y-53.746
X54.381Y-77.165
X54.559Y-82.525
X54.585Y-31.344
X54.61Y-40.386
X54.61Y-40.894
X54.61Y-41.402
X54.61Y-41.91
X54.61Y-42.418
X54.61Y-42.926
X54.686Y-83.236
X54.864Y-53.543
X54.871Y-36.732
X54.898Y-56.26
X55.042Y-55.829
X55.169Y-25.324
X55.372Y-31.496
X55.508Y-65.396
X55.626Y-37.338
X55.778Y-34.061
X55.829Y-65.075
X56.21Y-64.694
X56.236Y-36.728
X57.048Y-57.226
X57.937Y-66.751
X58.141Y-66.319
X58.267Y-27.968
X58.547Y-66.751
X59.03Y-21.716
X59.055Y-24.079
X59.055Y-25.425
X59.055Y-38.583
X60.325Y-28.575
X60.325Y-99.06
X60.325Y-101.6
X60.96Y-85.09
X60.96Y-98.425
X60.96Y-99.06
X61.239Y-89.941
X61.595Y-98.425
X62.23Y-98.425
X62.23Y-102.235
X62.865Y-95.25
X62.865Y-98.425
X63.221Y-89.941
X63.5Y-99.06
X64.135Y-55.321
X64.135Y-101.6
X65.253Y-26.619
X66.523Y-95.174
X66.65Y-50.8
X66.726Y-56.591
X67.31Y-52.705
X67.361Y-46.99
X67.361Y-48.26
X68.377Y-31.394
X68.682Y-55.245
X68.783Y-31.699
X69.215Y-49.53
X69.215Y-52.07
X69.85Y-47.625
X69.85Y-48.26
X69.85Y-48.895
X69.85Y-49.53
X69.85Y-52.07
X70.485Y-48.26
X70.485Y-48.895
X70.485Y-49.53
X70.485Y-50.165
X70.485Y-50.8
X70.485Y-51.435
X70.485Y-52.07
X71.018Y-30.632
X71.12Y-94.615
X71.272Y-31.496
X71.78Y-57.353
X72.365Y-57.353
X72.39Y-34.925
X72.39Y-37.465
X72.39Y-38.735
X72.39Y-40.005
X72.39Y-76.835
X72.568Y-38.151
X73.076Y-45.06
X73.15Y-43.18
X73.457Y-39.37
X73.533Y-44.602
X73.635Y-35.585
X73.66Y-40.64
X73.66Y-62.23
X74.066Y-76.505
X74.397Y-48.031
X74.473Y-45.415
X74.574Y-44.856
X74.854Y-61.011
X74.93Y-67.894
X74.949Y-44.366
X74.981Y-62.865
X75.362Y-55.372
X75.387Y-44.247
X75.565Y-49.53
X75.69Y-57.076
X75.743Y-56.413
X75.794Y-32.893
X75.844Y-55.067
X76.175Y-60.909
X76.2Y-48.895
X76.2Y-49.53
X76.2Y-50.165
X76.225Y-26.848
X76.302Y-43.84
X76.403Y-46.99
X76.683Y-43.409
X76.708Y-42.824
X76.733Y-29.312
X76.835Y-48.895
X76.835Y-49.53
X76.835Y-50.165
X76.835Y-50.8
X76.987Y-46.685
X77.114Y-32.817
X77.318Y-59.69
X77.343Y-29.591
X77.47Y-48.895
X77.47Y-49.53
X77.47Y-50.165
X77.47Y-50.8
X77.47Y-51.435
X77.673Y-45.06
X77.902Y-45.618
X77.902Y-62.814
X78.105Y-48.26
X78.105Y-48.895
X78.105Y-49.53
X78.105Y-50.165
X78.105Y-50.8
X78.105Y-51.435
X78.105Y-52.07
X78.207Y-63.17
X78.537Y-44.729
X78.74Y-47.625
X78.74Y-48.26
X78.74Y-48.895
X78.74Y-49.53
X78.74Y-50.165
X78.74Y-50.8
X78.74Y-51.435
X78.74Y-77.47
X78.867Y-56.261
X79.019Y-45.187
X79.07Y-94.31
X79.375Y-48.26
X79.375Y-48.895
X79.375Y-49.53
X79.375Y-50.165
X79.375Y-50.8
X79.4Y-53.315
X80.01Y-48.895
X80.01Y-49.53
X80.01Y-50.165
X80.086Y-65.329
X80.289Y-91.745
X80.645Y-49.53
X80.645Y-74.93
X80.848Y-51.537
X81.102Y-65.202
X81.128Y-42.748
X81.331Y-51.384
X81.686Y-43.256
X81.915Y-54.61
X81.915Y-55.245
X82.296Y-57.404
X82.296Y-58.598
X82.372Y-50.089
X82.55Y-52.705
X82.55Y-53.34
X82.55Y-53.975
X83.185Y-52.705
X83.185Y-53.34
X83.185Y-74.93
X83.617Y-92.38
X83.668Y-66.7
X83.82Y-52.705
X83.82Y-53.34
X84.277Y-49.632
X84.455Y-53.975
X84.455Y-60.427
X84.455Y-62.992
X84.607Y-66.7
X84.607Y-86.944
X84.633Y-69.621
X85.141Y-28.499
X85.217Y-66.675
X85.344Y-54.864
X85.674Y-63.246
X85.852Y-64.77
X86.182Y-87.63
X86.258Y-70.485
X86.36Y-74.93
X86.36Y-75.565
X86.36Y-76.2
X86.36Y-92.075
X86.36Y-92.71
X86.36Y-93.345
X86.512Y-58.852
X86.639Y-60.858
X86.995Y-74.295
X86.995Y-76.835
X86.995Y-91.44
X86.995Y-93.98
X87.351Y-53.086
X87.452Y-33.325
X87.63Y-74.295
X87.63Y-76.835
X87.63Y-91.44
X87.63Y-93.98
X88.011Y-60.681
X88.13Y-79.375
X88.13Y-81.915
X88.13Y-84.455
X88.163Y-82.55
X88.163Y-85.09
X88.214Y-66.446
X88.24Y-80.01
X88.265Y-69.825
X88.748Y-52.807
X88.849Y-53.34
X88.875Y-51.765
X89.535Y-52.197
X89.535Y-73.66
X89.535Y-77.47
X89.535Y-90.805
X89.535Y-94.615
X89.789Y-60.604
X89.865Y-59.157
X89.967Y-61.57
X90.17Y-74.295
X90.17Y-92.71
X91.872Y-32.537
X92.558Y-64.643
X92.659Y-28.473
X92.71Y-33.02
X93.345Y-80.01
X93.345Y-81.28
X93.345Y-82.55
X93.345Y-83.82
X93.345Y-85.09
X93.345Y-86.36
X94.615Y-64.516
X95.885Y-64.516
X97.155Y-64.567
X98.374Y-64.973
X101.295Y-50.927
X101.981Y-54.178
X102.591Y-72.263
X102.972Y-65.354
X103.378Y-79.121
X104.597Y-58.649
X105.359Y-85.75
X106.756Y-70.556
X107.188Y-76.727
X107.34Y-52.299
X107.391Y-64.402
X108.229Y-72.238
X108.458Y-91.923
X108.687Y-66.345
X108.687Y-82.731
X108.839Y-78.207
X109.068Y-58.445
X110.134Y-60.604
X110.465Y-83.795
X111.125Y-46.457
X111.215Y-88.38
X111.784Y-52.884
X112.573Y-55.194
X112.598Y-97.485
X113.03Y-89.129
X114.687Y-93.503
X115.419Y-47.878
X115.875Y-41.478
X115.9Y-50.241
X116.51Y-94.082
X117.602Y-102.235
X118.993Y-98.012
X119.857Y-43.567
X120.015Y-45.999
X120.752Y-98.095
X121.437Y-37.338
X123.419Y-106.045
X123.994Y-101.591
X124.816Y-42.57
X124.98Y-40.095
X125.654Y-101.397
X127.61Y-34.239
X129.572Y-104.274
X129.718Y-108.788
X130.15Y-40.056
X130.629Y-37.567
X131.064Y-103.861
X134.239Y-32.258
X135.516Y-105.994
X135.865Y-38.405
X136.449Y-110.388
X136.633Y-36.068
X136.804Y-105.334
X141.122Y-31.445
X141.676Y-106.604
X141.732Y-36.398
X142.723Y-105.766
X142.804Y-35.636
X143.383Y-110.769
X147.676Y-36.982
X147.847Y-106.172
X148.031Y-31.852
X148.615Y-105.181
X148.964Y-36.246
X150.241Y-109.982
X153.416Y-38.405
X153.851Y-104.673
X154.33Y-103.581
X154.762Y-33.452
X154.908Y-37.966
X156.87Y-108.001
X158.826Y-40.894
X159.5Y-102.145
X159.664Y-101.016
X160.486Y-40.649
X161.087Y-36.195
X163.068Y-104.902
X163.728Y-44.247
X164.465Y-97.587
X164.612Y-98.659
X165.482Y-44.299
X166.853Y-40.005
X167.996Y-48.285
X168.58Y-91.846
X168.605Y-100.762
X169.074Y-94.374
X169.793Y-48.737
X171.45Y-52.984
X171.856Y-44.729
X171.933Y-87.097
X172.711Y-89.366
X173.265Y-53.86
X173.355Y-95.733
X174.041Y-58.268
X174.346Y-81.61
X175.394Y-83.788
X175.641Y-64.237
X175.793Y-59.509
X175.819Y-75.921
X175.997Y-50.292
X176.225Y-70.053
X176.632Y-113.208
X176.835Y-105.232
X177.089Y-77.838
X177.165Y-89.967
X177.317Y-65.51
X177.749Y-71.686
X179.095Y-56.464
X179.86Y-104.775
X179.908Y-83.617
X181.077Y-63.094
X181.508Y-76.86
X181.889Y-69.952
T2
X22.86Y-31.115
X22.86Y-38.735
X23.368Y-29.54
T3
X16.739Y-31.725
X20.904Y-29.591
X29.21Y-43.815
X29.566Y-38.735
X30.48Y-42.545
X30.48Y-43.815
X30.48Y-45.085
X30.591Y-46.661
X31.623Y-46.711
X31.725Y-40.792
X31.75Y-43.815
X36.068Y-49.53
X36.779Y-48.006
X37.084Y-52.07
X38.608Y-35.814
X39.091Y-38.1
X41.91Y-33.528
X43.18Y-36.83
X43.18Y-37.465
X43.18Y-38.1
X48.209Y-38.735
X48.311Y-32.156
X49.859Y-36.64
X52.832Y-42.418
X54.737Y-34.595
X56.337Y-41.91
X56.515Y-31.725
X56.515Y-71.755
X57.15Y-74.295
X58.42Y-71.755
X59.426Y-32.334
X59.69Y-74.295
X60.96Y-71.755
X61.595Y-81.915
X62.154Y-88.265
X62.23Y-74.295
X62.408Y-52.705
X62.713Y-32.639
X62.738Y-34.95
X63.5Y-71.755
X64.77Y-74.295
X65.405Y-81.28
X65.761Y-34.95
X66.04Y-71.755
X67.31Y-74.295
X67.412Y-89.967
X67.412Y-92.735
X69.209Y-76.2
X69.215Y-72.39
X71.095Y-35.484
X71.755Y-96.52
X71.755Y-100.33
X74.295Y-96.52
X74.295Y-100.33
X75.565Y-77.47
X75.565Y-94.615
X76.835Y-96.52
X76.835Y-100.33
X79.375Y-96.52
X79.375Y-100.33
X81.915Y-96.52
X81.915Y-100.33
X83.287Y-31.369
X84.607Y-33.223
X93.98Y-116.84
X93.98Y-119.38
X96.52Y-116.84
X96.52Y-119.38
X99.06Y-116.84
X99.06Y-119.38
X101.6Y-116.84
X101.6Y-119.38
X104.14Y-116.84
X104.14Y-119.38
X106.68Y-116.84
X106.68Y-119.38
X109.22Y-116.84
X109.22Y-119.38
X111.76Y-116.84
X111.76Y-119.38
X114.3Y-116.84
X114.3Y-119.38
X116.84Y-116.84
X116.84Y-119.38
X119.38Y-116.84
X119.38Y-119.38
X121.92Y-116.84
X121.92Y-119.38
X124.46Y-116.84
X124.46Y-119.38
X127.0Y-116.84
X127.0Y-119.38
X129.54Y-116.84
X129.54Y-119.38
X132.08Y-116.84
X132.08Y-119.38
T5
X73.66Y-106.84
X73.66Y-108.84
X73.66Y-110.84
X73.66Y-112.84
X73.66Y-114.84
X73.66Y-116.84
X81.28Y-106.84
X81.28Y-108.84
X81.28Y-110.84
X81.28Y-112.84
X81.28Y-114.84
X81.28Y-116.84
T6
X71.12Y-81.36
X71.12Y-83.86
X71.12Y-86.36
T7
X20.38Y-32.035
X20.38Y-37.815
X86.01Y-26.095
X91.79Y-26.095
T8
X43.18Y-25.4
X53.34Y-24.384
X53.34Y-26.416
T9
X43.18Y-22.86
X43.18Y-27.94
X51.435Y-22.86
X51.435Y-27.94
T4
X17.03Y-30.605G85X16.43Y-30.605
G05
X17.03Y-39.245G85X16.43Y-39.245
G05
X21.46Y-30.605G85X20.36Y-30.605
G05
X21.46Y-39.245G85X20.36Y-39.245
G05
X84.58Y-22.745G85X84.58Y-22.145
G05
X84.58Y-27.175G85X84.58Y-26.075
G05
X93.22Y-22.745G85X93.22Y-22.145
G05
X93.22Y-27.175G85X93.22Y-26.075
G05
M30
