%TF.GenerationSoftware,KiCad,Pcbnew,9.0.2*%
%TF.CreationDate,2026-03-28T23:26:53-07:00*%
%TF.ProjectId,bldc,626c6463-2e6b-4696-9361-645f70636258,rev?*%
%TF.SameCoordinates,Original*%
%TF.FileFunction,Legend,Bot*%
%TF.FilePolarity,Positive*%
%FSLAX46Y46*%
G04 Gerber Fmt 4.6, Leading zero omitted, Abs format (unit mm)*
G04 Created by KiCad (PCBNEW 9.0.2) date 2026-03-28 23:26:53*
%MOMM*%
%LPD*%
G01*
G04 APERTURE LIST*
%ADD10C,0.000000*%
%ADD11C,0.350000*%
%ADD12O,0.600000X1.700000*%
%ADD13O,0.600000X1.200000*%
%ADD14O,1.700000X0.600000*%
%ADD15O,1.200000X0.600000*%
G04 APERTURE END LIST*
D10*
%TO.C,kibuzzard-690461AA*%
G36*
X149546379Y-108847005D02*
G01*
X149752940Y-109320881D01*
X149752940Y-116416871D01*
X149236537Y-116173858D01*
X149036051Y-115590626D01*
X149036051Y-108798402D01*
X149060352Y-108798402D01*
X149546379Y-108847005D01*
G37*
G36*
X182851361Y-112893177D02*
G01*
X181806403Y-113053940D01*
X181113815Y-113160492D01*
X181113815Y-110778961D01*
X181806403Y-110778961D01*
X181806403Y-112941780D01*
X182274204Y-112856725D01*
X182729854Y-112783821D01*
X182729854Y-110511646D01*
X182274204Y-110651379D01*
X181806403Y-110778961D01*
X181113815Y-110778961D01*
X181113815Y-110098524D01*
X182851361Y-109600346D01*
X182851361Y-112893177D01*
G37*
G36*
X164698262Y-115177503D02*
G01*
X163701908Y-115237284D01*
X163483196Y-115250407D01*
X163136902Y-115134976D01*
X163009320Y-114812983D01*
X163009320Y-111167783D01*
X163701908Y-111167783D01*
X163701908Y-115128900D01*
X164133256Y-115092448D01*
X164576756Y-115068147D01*
X164576756Y-110523797D01*
X164115030Y-110645304D01*
X163823414Y-110857940D01*
X163701908Y-111167783D01*
X163009320Y-111167783D01*
X163009320Y-110560249D01*
X163136902Y-110189654D01*
X163483196Y-109952716D01*
X164698262Y-109612497D01*
X164698262Y-115177503D01*
G37*
G36*
X184054277Y-116416871D02*
G01*
X184017825Y-116416871D01*
X183398141Y-116155632D01*
X183155128Y-115529872D01*
X183155128Y-114108244D01*
X180834350Y-114326956D01*
X180810049Y-114315712D01*
X180427303Y-114138621D01*
X180263269Y-113646519D01*
X180263269Y-110122825D01*
X180308298Y-109867661D01*
X180810049Y-109867661D01*
X180810049Y-113512861D01*
X183155128Y-113160492D01*
X183155128Y-109199374D01*
X180810049Y-109867661D01*
X180308298Y-109867661D01*
X180336173Y-109709702D01*
X180603487Y-109272278D01*
X180779672Y-109144696D01*
X180955857Y-109041416D01*
X184054277Y-107972157D01*
X184054277Y-116416871D01*
G37*
G36*
X141599842Y-115456968D02*
G01*
X141381130Y-116113104D01*
X140822199Y-116416871D01*
X140846501Y-109697552D01*
X138525723Y-113962436D01*
X138525723Y-116416871D01*
X138118676Y-116173858D01*
X137954642Y-115651379D01*
X137954642Y-109247977D01*
X137972868Y-109241902D01*
X137986960Y-109237204D01*
X138367764Y-109302655D01*
X138525723Y-109758305D01*
X138537874Y-112953931D01*
X138890243Y-112168694D01*
X139242612Y-111392570D01*
X139579793Y-110658973D01*
X139886598Y-110001318D01*
X140152394Y-109436312D01*
X140366549Y-108980662D01*
X140591337Y-108531087D01*
X140955857Y-108275923D01*
X141368979Y-108093663D01*
X141599842Y-108020759D01*
X141599842Y-115456968D01*
G37*
G36*
X137991094Y-109235826D02*
G01*
X137986960Y-109237204D01*
X137978943Y-109235826D01*
X137991094Y-109235826D01*
G37*
G36*
X165889028Y-116416871D02*
G01*
X163507497Y-116416871D01*
X163483196Y-116416871D01*
X162924265Y-116295365D01*
X162936416Y-116295365D01*
X162520255Y-115979447D01*
X162243827Y-115493420D01*
X162255978Y-115505571D01*
X162158773Y-114898038D01*
X162158773Y-110864016D01*
X162204624Y-110560249D01*
X162705553Y-110560249D01*
X162705553Y-114812983D01*
X162918190Y-115353688D01*
X163507497Y-115554174D01*
X165002029Y-115469119D01*
X165002029Y-109211525D01*
X163398141Y-109661100D01*
X162893888Y-110019544D01*
X162705553Y-110560249D01*
X162204624Y-110560249D01*
X162255978Y-110220030D01*
X162565820Y-109594271D01*
X162997169Y-109102169D01*
X163270559Y-108925984D01*
X163580401Y-108786252D01*
X165889028Y-107984307D01*
X165889028Y-116416871D01*
G37*
G36*
X178197655Y-108701197D02*
G01*
X178452819Y-109466689D01*
X178452819Y-114861586D01*
X178307011Y-115602776D01*
X178307011Y-115590626D01*
X177766306Y-116192084D01*
X177043341Y-116416871D01*
X174977728Y-116416871D01*
X175166063Y-115857940D01*
X175633864Y-115590626D01*
X176800328Y-115517722D01*
X177098019Y-115444818D01*
X177359259Y-115274708D01*
X177590122Y-114679326D01*
X177590122Y-110147126D01*
X177316731Y-109606422D01*
X176690972Y-109503141D01*
X175529732Y-109829739D01*
X175135687Y-109746154D01*
X174977728Y-109320881D01*
X174977728Y-109247977D01*
X175527546Y-109055085D01*
X176059137Y-108865231D01*
X176590729Y-108678414D01*
X177140547Y-108494635D01*
X177553670Y-108421731D01*
X178197655Y-108701197D01*
G37*
G36*
X175536659Y-109831209D02*
G01*
X175524508Y-109831209D01*
X175529732Y-109829739D01*
X175536659Y-109831209D01*
G37*
G36*
X160275419Y-114849435D02*
G01*
X160117461Y-115602776D01*
X160129611Y-115590626D01*
X159771166Y-116040200D01*
X159279064Y-116343967D01*
X159291215Y-116331817D01*
X159060352Y-116392570D01*
X158853791Y-116416871D01*
X157420012Y-116416871D01*
X156970437Y-116192084D01*
X156800328Y-115639228D01*
X156800328Y-115627078D01*
X158610778Y-115505571D01*
X159194010Y-115250407D01*
X159291215Y-115068147D01*
X159376270Y-114891962D01*
X159412722Y-114667175D01*
X159412722Y-112710917D01*
X157638724Y-112966081D01*
X157201300Y-112820273D01*
X157031191Y-112334247D01*
X157031191Y-112273493D01*
X159412722Y-111775316D01*
X159412722Y-109247977D01*
X157334957Y-109831209D01*
X156946136Y-109746154D01*
X156800328Y-109308730D01*
X156800328Y-109235826D01*
X160275419Y-108020759D01*
X160275419Y-114849435D01*
G37*
G36*
X154789392Y-108415656D02*
G01*
X154929125Y-108871306D01*
X154929125Y-111665960D01*
X154856221Y-112066932D01*
X154655735Y-112413226D01*
X154364119Y-112662315D01*
X154017825Y-112795972D01*
X153537874Y-112856725D01*
X153009320Y-112935705D01*
X152486841Y-113014684D01*
X152012965Y-113075437D01*
X152012965Y-115602776D01*
X154090729Y-115469119D01*
X154680036Y-115699982D01*
X154929125Y-116368269D01*
X154929125Y-116416871D01*
X152061567Y-116416871D01*
X151618068Y-116204235D01*
X151441883Y-115651379D01*
X151454034Y-113196944D01*
X151642369Y-112583335D01*
X152122321Y-112249192D01*
X154066428Y-111860371D01*
X154066428Y-109247977D01*
X151976513Y-109831209D01*
X151593767Y-109746154D01*
X151441883Y-109320881D01*
X151441883Y-109235826D01*
X154175784Y-108312375D01*
X154443098Y-108251622D01*
X154789392Y-108415656D01*
G37*
G36*
X172966792Y-108415656D02*
G01*
X173106525Y-108871306D01*
X173106525Y-111665960D01*
X173033621Y-112066932D01*
X172833135Y-112413226D01*
X172541519Y-112662315D01*
X172195225Y-112795972D01*
X171715273Y-112856725D01*
X171186719Y-112935705D01*
X170664241Y-113014684D01*
X170190365Y-113075437D01*
X170190365Y-115602776D01*
X172268129Y-115469119D01*
X172857436Y-115699982D01*
X173106525Y-116368269D01*
X173106525Y-116416871D01*
X170238967Y-116416871D01*
X169795468Y-116204235D01*
X169619283Y-115651379D01*
X169631434Y-113196944D01*
X169819769Y-112583335D01*
X170299721Y-112249192D01*
X172243827Y-111860371D01*
X172243827Y-109247977D01*
X170153913Y-109831209D01*
X169771166Y-109746154D01*
X169619283Y-109320881D01*
X169619283Y-109235826D01*
X172353183Y-108312375D01*
X172620498Y-108251622D01*
X172966792Y-108415656D01*
G37*
G36*
X149655735Y-108397430D02*
G01*
X149874447Y-108506786D01*
X149862296Y-108591841D01*
X149935200Y-108506786D01*
X150481981Y-109211525D01*
X150749295Y-109928414D01*
X150749295Y-117413226D01*
X150372625Y-117413226D01*
X150056707Y-117287862D01*
X149607132Y-117109459D01*
X149194010Y-116696337D01*
X148762661Y-116234611D01*
X148610778Y-115590626D01*
X148610778Y-108579690D01*
X148732284Y-108579690D01*
X148732284Y-115590626D01*
X148805188Y-116028050D01*
X149017825Y-116386495D01*
X149345893Y-116629508D01*
X149765091Y-116720638D01*
X150056707Y-116720638D01*
X150056707Y-109320881D01*
X149971652Y-108883457D01*
X149740790Y-108579690D01*
X149406646Y-108439957D01*
X148999599Y-108494635D01*
X148732284Y-108579690D01*
X148610778Y-108579690D01*
X148610778Y-108482485D01*
X148774812Y-108427807D01*
X148950996Y-108373129D01*
X149400571Y-108360978D01*
X149655735Y-108397430D01*
G37*
G36*
X166314301Y-107473979D02*
G01*
X166885383Y-108045061D01*
X166885383Y-117413226D01*
X166192795Y-117413226D01*
X164090729Y-117413226D01*
X163373840Y-117255267D01*
X162924265Y-116939350D01*
X162571896Y-116586981D01*
X162134471Y-116192084D01*
X161842855Y-115639228D01*
X161733499Y-114898038D01*
X161733499Y-110864016D01*
X161855006Y-110864016D01*
X161855006Y-114898038D01*
X161964362Y-115602776D01*
X162301543Y-116192084D01*
X162802758Y-116574830D01*
X163483196Y-116720638D01*
X166192795Y-116720638D01*
X166192795Y-107559034D01*
X163483196Y-108494635D01*
X162802758Y-108871306D01*
X162313694Y-109421124D01*
X161964362Y-110122825D01*
X161855006Y-110864016D01*
X161733499Y-110864016D01*
X161842855Y-110086373D01*
X162204338Y-109360371D01*
X162729854Y-108786252D01*
X162717704Y-108786252D01*
X163063998Y-108549313D01*
X163446744Y-108373129D01*
X166314301Y-107388925D01*
X166314301Y-107473979D01*
G37*
G36*
X147049417Y-108634368D02*
G01*
X147322807Y-109418086D01*
X147322807Y-114849435D01*
X147164848Y-115578475D01*
X146788177Y-116058426D01*
X146314301Y-116356118D01*
X145889028Y-116416871D01*
X143531798Y-116416871D01*
X143531798Y-115177503D01*
X143539899Y-114147396D01*
X143564200Y-113471009D01*
X143604702Y-113148341D01*
X143653305Y-113038985D01*
X143750510Y-112905328D01*
X144175784Y-112589411D01*
X145439453Y-112358548D01*
X145202515Y-113008609D01*
X144649660Y-113354903D01*
X144078578Y-113427807D01*
X144078578Y-115590626D01*
X145840425Y-115493420D01*
X146107740Y-115420516D01*
X146204945Y-115250407D01*
X146368979Y-114989168D01*
X146435808Y-114667175D01*
X146435808Y-110110674D01*
X146411507Y-109776531D01*
X146314301Y-109521367D01*
X146107740Y-109381634D01*
X145743220Y-109393785D01*
X144047538Y-109878265D01*
X143683682Y-109794757D01*
X143531798Y-109369484D01*
X143531798Y-109296580D01*
X145986233Y-108433882D01*
X145974083Y-108433882D01*
X146186719Y-108385279D01*
X146387205Y-108360978D01*
X147049417Y-108634368D01*
G37*
G36*
X144054277Y-109879812D02*
G01*
X144042126Y-109879812D01*
X144047538Y-109878265D01*
X144054277Y-109879812D01*
G37*
G36*
X184479550Y-107461829D02*
G01*
X185050632Y-108032910D01*
X185050632Y-117413226D01*
X184625358Y-117413226D01*
X184358044Y-117360423D01*
X184133256Y-117316021D01*
X183738360Y-117048706D01*
X183361689Y-116672035D01*
X182899964Y-116198159D01*
X182729854Y-115529872D01*
X182729854Y-115226106D01*
X181478335Y-115323311D01*
X180810049Y-115068147D01*
X180396926Y-114655024D01*
X179989878Y-114247977D01*
X179837995Y-113646519D01*
X179837995Y-110122825D01*
X179959502Y-110122825D01*
X179959502Y-113646519D01*
X180026330Y-114047491D01*
X180214666Y-114369484D01*
X180500207Y-114582120D01*
X180858651Y-114630723D01*
X182851361Y-114448463D01*
X182851361Y-115529872D01*
X182942491Y-115991598D01*
X183185504Y-116374344D01*
X183556100Y-116629508D01*
X184017825Y-116720638D01*
X184358044Y-116720638D01*
X184358044Y-107546883D01*
X180858651Y-108749800D01*
X180384775Y-109065717D01*
X180384775Y-109053566D01*
X180196440Y-109290504D01*
X180056707Y-109588196D01*
X180056707Y-109576045D01*
X179959502Y-110122825D01*
X179837995Y-110122825D01*
X179935200Y-109527442D01*
X180324022Y-108944210D01*
X180336173Y-108944210D01*
X180822199Y-108628293D01*
X184479550Y-107376774D01*
X184479550Y-107461829D01*
G37*
G36*
X142025115Y-107498281D02*
G01*
X142596197Y-108069362D01*
X142596197Y-116064502D01*
X142498991Y-116605207D01*
X142231677Y-117030480D01*
X141830705Y-117309945D01*
X141332527Y-117413226D01*
X141040911Y-117413226D01*
X140518433Y-116890747D01*
X140469830Y-116842145D01*
X140396926Y-116842145D01*
X140396926Y-113051136D01*
X139522078Y-114655024D01*
X139522078Y-117413226D01*
X139169708Y-117413226D01*
X138811264Y-117340322D01*
X138513572Y-117133761D01*
X138112600Y-116732789D01*
X137687327Y-116307515D01*
X137529368Y-115651379D01*
X137529368Y-109029265D01*
X137650875Y-109029265D01*
X137650875Y-115651379D01*
X137717704Y-116064502D01*
X137906039Y-116404721D01*
X138197655Y-116635583D01*
X138562175Y-116720638D01*
X138829490Y-116720638D01*
X138829490Y-114035340D01*
X140518433Y-110912618D01*
X140518433Y-116720638D01*
X140724994Y-116720638D01*
X141563390Y-116362193D01*
X141818554Y-115956665D01*
X141903609Y-115456968D01*
X141903609Y-107583335D01*
X141271774Y-107802047D01*
X140791823Y-108014684D01*
X140360474Y-108336677D01*
X140214666Y-108600194D01*
X139910899Y-109232789D01*
X139449174Y-110234459D01*
X138829490Y-111605207D01*
X138829490Y-109758305D01*
X138756586Y-109333032D01*
X138556100Y-109041416D01*
X138258408Y-108907758D01*
X137893888Y-108944210D01*
X137650875Y-109029265D01*
X137529368Y-109029265D01*
X137529368Y-108944210D01*
X137857436Y-108822704D01*
X138428518Y-108816628D01*
X138817339Y-109162922D01*
X139266914Y-109612497D01*
X139461324Y-109916264D01*
X139775723Y-109231270D01*
X140014180Y-108731574D01*
X140263269Y-108263773D01*
X140731069Y-107911403D01*
X141235322Y-107680541D01*
X142025115Y-107413226D01*
X142025115Y-107498281D01*
G37*
G36*
X178200693Y-108148341D02*
G01*
X178659380Y-108603991D01*
X179048202Y-108992813D01*
X179339818Y-109448463D01*
X179449174Y-110074222D01*
X179449174Y-115469119D01*
X179254763Y-116380419D01*
X178957072Y-116798098D01*
X178574326Y-117127685D01*
X177650875Y-117413226D01*
X177043341Y-117413226D01*
X175196440Y-117413226D01*
X174625358Y-116842145D01*
X174552454Y-116842145D01*
X174552454Y-116416871D01*
X174631434Y-115961221D01*
X174856221Y-115566324D01*
X175196440Y-115286859D01*
X175609563Y-115165352D01*
X176776027Y-115092448D01*
X177055492Y-114970942D01*
X177043341Y-114970942D01*
X177128396Y-114819058D01*
X177164848Y-114679326D01*
X177164848Y-110560249D01*
X176241397Y-110815413D01*
X175797898Y-110827564D01*
X175451604Y-110633153D01*
X175014180Y-110195729D01*
X174680036Y-109867661D01*
X174552454Y-109320881D01*
X174552454Y-109017114D01*
X174673961Y-109017114D01*
X174673961Y-109320881D01*
X174746865Y-109715778D01*
X174947351Y-110001318D01*
X175245043Y-110141051D01*
X175609563Y-110122825D01*
X176776027Y-109794757D01*
X177134471Y-109843360D01*
X177286355Y-110147126D01*
X177286355Y-114679326D01*
X177152697Y-115043846D01*
X176776027Y-115213955D01*
X175609563Y-115286859D01*
X175245043Y-115396215D01*
X174947351Y-115645304D01*
X174746865Y-115997673D01*
X174673961Y-116416871D01*
X174673961Y-116720638D01*
X177043341Y-116720638D01*
X177918190Y-116453323D01*
X178574326Y-115736434D01*
X178756586Y-114861586D01*
X178756586Y-109466689D01*
X178616853Y-108786252D01*
X178234107Y-108324526D01*
X177687327Y-108117965D01*
X177043341Y-108203019D01*
X174673961Y-109017114D01*
X174552454Y-109017114D01*
X174552454Y-108932060D01*
X175330097Y-108664745D01*
X176132041Y-108385279D01*
X177006889Y-108081513D01*
X177553670Y-107996458D01*
X178200693Y-108148341D01*
G37*
G36*
X160700693Y-107510431D02*
G01*
X161271774Y-108081513D01*
X161271774Y-115456968D01*
X161077363Y-116380419D01*
X160615638Y-116954538D01*
X160032406Y-117316021D01*
X159461324Y-117413226D01*
X158853791Y-117413226D01*
X158027546Y-117413226D01*
X157656950Y-117340322D01*
X157359259Y-117133761D01*
X156958287Y-116732789D01*
X156533013Y-116307515D01*
X156375055Y-115639228D01*
X156375055Y-115213955D01*
X156933985Y-115189654D01*
X157505067Y-115153202D01*
X158586476Y-115080298D01*
X158714058Y-115037770D01*
X158853791Y-114983092D01*
X158890243Y-114922339D01*
X158987448Y-114667175D01*
X158987448Y-113865231D01*
X158647230Y-113913834D01*
X158294860Y-113962436D01*
X157875662Y-113932060D01*
X157553670Y-113731574D01*
X157104095Y-113281999D01*
X156739575Y-112899253D01*
X156605917Y-112334247D01*
X156605917Y-111908973D01*
X157193706Y-111785948D01*
X157790608Y-111659885D01*
X158390547Y-111533821D01*
X158987448Y-111410796D01*
X158987448Y-110560249D01*
X158051847Y-110815413D01*
X157274204Y-110621002D01*
X156824629Y-110171428D01*
X156496561Y-109837284D01*
X156375055Y-109308730D01*
X156375055Y-109004964D01*
X156496561Y-109004964D01*
X156496561Y-109308730D01*
X156563390Y-109703627D01*
X156751725Y-109995243D01*
X157043341Y-110147126D01*
X157420012Y-110122825D01*
X159108955Y-109648949D01*
X159108955Y-111520152D01*
X156727424Y-112018329D01*
X156727424Y-112334247D01*
X156794253Y-112741294D01*
X156988663Y-113057211D01*
X157292430Y-113245547D01*
X157675176Y-113269848D01*
X159108955Y-113063287D01*
X159108955Y-114667175D01*
X159060352Y-114855510D01*
X158963147Y-115043846D01*
X158586476Y-115201804D01*
X156496561Y-115335462D01*
X156496561Y-115639228D01*
X156563390Y-116064502D01*
X156751725Y-116404721D01*
X157043341Y-116635583D01*
X157420012Y-116720638D01*
X158853791Y-116720638D01*
X159388420Y-116623433D01*
X159962539Y-116274101D01*
X160396926Y-115736434D01*
X160579186Y-114849435D01*
X160579186Y-107595486D01*
X156496561Y-109004964D01*
X156375055Y-109004964D01*
X156375055Y-108919909D01*
X160700693Y-107425377D01*
X160700693Y-107510431D01*
G37*
G36*
X154904824Y-107938742D02*
G01*
X155220741Y-108275923D01*
X155646015Y-108701197D01*
X155852576Y-109029265D01*
X155925480Y-109478840D01*
X155925480Y-112273493D01*
X155828275Y-112820273D01*
X155560960Y-113275923D01*
X155166063Y-113616142D01*
X154686112Y-113792327D01*
X153847716Y-113913834D01*
X153009320Y-114035340D01*
X153009320Y-115116750D01*
X154066428Y-115043846D01*
X154710413Y-115177503D01*
X155172139Y-115639228D01*
X155560960Y-116028050D01*
X155834350Y-116447248D01*
X155925480Y-116975802D01*
X155925480Y-117413226D01*
X155232892Y-117413226D01*
X152669101Y-117413226D01*
X151988663Y-117133761D01*
X151563390Y-116708487D01*
X151168493Y-116289289D01*
X151016610Y-115651379D01*
X151028761Y-113196944D01*
X151107740Y-112735219D01*
X151320377Y-112316021D01*
X151636294Y-112000103D01*
X152037266Y-111823919D01*
X152839210Y-111665960D01*
X153641154Y-111508001D01*
X153641154Y-110560249D01*
X152693402Y-110815413D01*
X152262053Y-110827564D01*
X151915759Y-110633153D01*
X151454034Y-110171428D01*
X151138117Y-109843360D01*
X151016610Y-109320881D01*
X151016610Y-109017114D01*
X151138117Y-109017114D01*
X151138117Y-109320881D01*
X151211021Y-109721853D01*
X151405431Y-110007394D01*
X151697047Y-110153202D01*
X152061567Y-110122825D01*
X153762661Y-109648949D01*
X153762661Y-111605207D01*
X152061567Y-111945425D01*
X151697047Y-112103384D01*
X151405431Y-112388925D01*
X151217096Y-112765595D01*
X151150267Y-113196944D01*
X151138117Y-115651379D01*
X151211021Y-116076652D01*
X151405431Y-116416871D01*
X151697047Y-116641659D01*
X152061567Y-116720638D01*
X155232892Y-116720638D01*
X155232892Y-116368269D01*
X155146318Y-115871610D01*
X154886598Y-115475194D01*
X154066428Y-115165352D01*
X152316731Y-115274708D01*
X152316731Y-113342752D01*
X154066428Y-113099739D01*
X154509927Y-112935705D01*
X154886598Y-112619787D01*
X155141762Y-112182363D01*
X155232892Y-111665960D01*
X155232892Y-108871306D01*
X154886598Y-108087588D01*
X154066428Y-108020759D01*
X151138117Y-109017114D01*
X151016610Y-109017114D01*
X151016610Y-108932060D01*
X154029976Y-107899253D01*
X154443098Y-107826349D01*
X154904824Y-107938742D01*
G37*
G36*
X173082224Y-107938742D02*
G01*
X173398141Y-108275923D01*
X173823414Y-108701197D01*
X174029976Y-109029265D01*
X174102880Y-109478840D01*
X174102880Y-112273493D01*
X174005674Y-112820273D01*
X173738360Y-113275923D01*
X173343463Y-113616142D01*
X172863512Y-113792327D01*
X172025115Y-113913834D01*
X171186719Y-114035340D01*
X171186719Y-115116750D01*
X172243827Y-115043846D01*
X172887813Y-115177503D01*
X173349538Y-115639228D01*
X173738360Y-116028050D01*
X174011750Y-116447248D01*
X174102880Y-116975802D01*
X174102880Y-117413226D01*
X173410292Y-117413226D01*
X170846501Y-117413226D01*
X170166063Y-117133761D01*
X169740790Y-116708487D01*
X169345893Y-116289289D01*
X169194010Y-115651379D01*
X169206160Y-113196944D01*
X169285140Y-112735219D01*
X169497776Y-112316021D01*
X169813694Y-112000103D01*
X170214666Y-111823919D01*
X171016610Y-111665960D01*
X171818554Y-111508001D01*
X171818554Y-110560249D01*
X170870802Y-110815413D01*
X170439453Y-110827564D01*
X170093159Y-110633153D01*
X169631434Y-110171428D01*
X169315516Y-109843360D01*
X169194010Y-109320881D01*
X169194010Y-109017114D01*
X169315516Y-109017114D01*
X169315516Y-109320881D01*
X169388420Y-109721853D01*
X169582831Y-110007394D01*
X169874447Y-110153202D01*
X170238967Y-110122825D01*
X171940061Y-109648949D01*
X171940061Y-111605207D01*
X170238967Y-111945425D01*
X169874447Y-112103384D01*
X169582831Y-112388925D01*
X169394496Y-112765595D01*
X169327667Y-113196944D01*
X169315516Y-115651379D01*
X169388420Y-116076652D01*
X169582831Y-116416871D01*
X169874447Y-116641659D01*
X170238967Y-116720638D01*
X173410292Y-116720638D01*
X173410292Y-116368269D01*
X173323718Y-115871610D01*
X173063998Y-115475194D01*
X172243827Y-115165352D01*
X170494131Y-115274708D01*
X170494131Y-113342752D01*
X172243827Y-113099739D01*
X172687327Y-112935705D01*
X173063998Y-112619787D01*
X173319162Y-112182363D01*
X173410292Y-111665960D01*
X173410292Y-108871306D01*
X173063998Y-108087588D01*
X172243827Y-108020759D01*
X169315516Y-109017114D01*
X169194010Y-109017114D01*
X169194010Y-108932060D01*
X172207375Y-107899253D01*
X172620498Y-107826349D01*
X173082224Y-107938742D01*
G37*
G36*
X147049417Y-108093663D02*
G01*
X147529368Y-108555389D01*
X147918190Y-108944210D01*
X148209806Y-109399860D01*
X148319162Y-110025620D01*
X148319162Y-115456968D01*
X148112600Y-116368269D01*
X147659988Y-116954538D01*
X147055492Y-117328171D01*
X146788177Y-117388925D01*
X146496561Y-117413226D01*
X145889028Y-117413226D01*
X143750510Y-117413226D01*
X143179429Y-116842145D01*
X143106525Y-116842145D01*
X143106525Y-115177503D01*
X143114625Y-114127145D01*
X143138927Y-113422407D01*
X143179429Y-113063287D01*
X143270559Y-112844575D01*
X143398141Y-112650164D01*
X143714058Y-112334247D01*
X144102880Y-112164137D01*
X145864727Y-111836069D01*
X145864727Y-111921124D01*
X146010535Y-112066932D01*
X146010535Y-110511646D01*
X144759016Y-110864016D01*
X144005674Y-110681756D01*
X143580401Y-110256482D01*
X143240182Y-109916264D01*
X143106525Y-109369484D01*
X143106525Y-109077868D01*
X143228032Y-109077868D01*
X143228032Y-109369484D01*
X143294860Y-109758305D01*
X143489271Y-110043846D01*
X143780887Y-110189654D01*
X144127181Y-110171428D01*
X145816124Y-109685401D01*
X146077363Y-109770456D01*
X146132041Y-110110674D01*
X146132041Y-114667175D01*
X145986233Y-115031695D01*
X145925480Y-115141051D01*
X145816124Y-115189654D01*
X145074933Y-115233623D01*
X144382345Y-115274708D01*
X144382345Y-114375559D01*
X145074933Y-114375559D01*
X145074933Y-115116750D01*
X145816124Y-115068147D01*
X145901179Y-114946640D01*
X146010535Y-114667175D01*
X146010535Y-113974587D01*
X145700693Y-114223676D01*
X145317947Y-114351258D01*
X145074933Y-114375559D01*
X144382345Y-114375559D01*
X144382345Y-113889532D01*
X144382345Y-113695122D01*
X144698262Y-113658670D01*
X145099235Y-113506786D01*
X145427303Y-113215170D01*
X145658165Y-112808123D01*
X145743220Y-112346397D01*
X145743220Y-111981877D01*
X144127181Y-112285644D01*
X143780887Y-112437527D01*
X143489271Y-112723068D01*
X143294860Y-113099739D01*
X143257733Y-113422407D01*
X143235457Y-114114995D01*
X143228032Y-115177503D01*
X143228032Y-116720638D01*
X144613208Y-116720638D01*
X145889028Y-116720638D01*
X146162418Y-116696337D01*
X146423657Y-116635583D01*
X146997776Y-116286252D01*
X147432163Y-115724283D01*
X147626574Y-114849435D01*
X147626574Y-109418086D01*
X147480765Y-108737649D01*
X147098019Y-108269848D01*
X146545164Y-108063287D01*
X145889028Y-108142266D01*
X143228032Y-109077868D01*
X143106525Y-109077868D01*
X143106525Y-108992813D01*
X145852576Y-108020759D01*
X146119891Y-107960006D01*
X146387205Y-107935705D01*
X147049417Y-108093663D01*
G37*
%TD*%
D11*
X73660000Y-106839999D03*
X73660000Y-108839999D03*
X73660000Y-110839999D03*
X73660000Y-112839999D03*
X73660000Y-114839999D03*
X73660000Y-116839999D03*
X81280000Y-116840000D03*
X81280000Y-114840000D03*
X81280000Y-112840000D03*
X81280000Y-110840000D03*
X81280000Y-108840000D03*
X81280000Y-106840000D03*
X91790000Y-26095000D03*
X86010000Y-26095000D03*
D12*
X93220000Y-26625000D03*
D13*
X93220000Y-22445000D03*
D12*
X84580000Y-26625000D03*
D13*
X84580000Y-22445000D03*
D11*
X20380000Y-32035000D03*
X20380000Y-37815000D03*
D14*
X20910000Y-30605000D03*
D15*
X16730000Y-30605000D03*
D14*
X20910000Y-39245000D03*
D15*
X16730000Y-39245000D03*
D11*
X43180000Y-22860000D03*
X43180000Y-25400000D03*
X43180000Y-27940000D03*
X51435000Y-22860000D03*
X51435000Y-27940000D03*
X53340000Y-24384000D03*
X53340000Y-26416000D03*
X71120000Y-86360000D03*
X71120000Y-83860000D03*
X71120000Y-81360000D03*
M02*
